<svg width="86" height="132" viewBox="0 0 86 132" fill="none" xmlns="http://www.w3.org/2000/svg">
<path d="M62.9004 32.16C62.9004 45.5253 57.9755 50.2 51.9004 50.2C45.8253 50.2 40.9004 45.5253 40.9004 32.16C40.9004 18.7947 51.9004 1.79999 51.9004 1.79999C51.9004 1.79999 62.9004 18.7947 62.9004 32.16Z" fill="#A6A06C"/>
<g style="mix-blend-mode:multiply">
<mask id="mask0_2_2114" style="mask-type:alpha" maskUnits="userSpaceOnUse" x="51" y="0" width="12" height="52">
<rect width="11.44" height="50.16" transform="matrix(-1 0 0 1 62.9004 0.919983)" fill="#D9D9D9"/>
</mask>
<g mask="url(#mask0_2_2114)">
<path d="M62.9004 32.16C62.9004 45.5253 57.9755 50.2 51.9004 50.2C45.8253 50.2 40.9004 45.5253 40.9004 32.16C40.9004 18.7947 50.5804 1.79994 51.9004 1.79999C52.7804 1.80002 62.9004 18.7947 62.9004 32.16Z" fill="#A6A06C" fill-opacity="0.3"/>
</g>
</g>
<line x1="46.5158" y1="20.6108" x2="51.7913" y2="27.8646" stroke="#938154" stroke-width="3" stroke-linecap="round"/>
<line x1="46.5158" y1="34.6908" x2="51.7913" y2="41.9446" stroke="#938154" stroke-width="3" stroke-linecap="round"/>
<line x1="1.5" y1="-1.5" x2="10.4693" y2="-1.5" transform="matrix(-0.588172 0.808736 0.808736 0.588172 60.2605 26.44)" stroke="#89784D" stroke-width="3" stroke-linecap="round"/>
<line x1="52.0803" y1="11.22" x2="52.0803" y2="57.5" stroke="#89784D" stroke-width="3" stroke-linecap="round"/>
<path d="M16.5574 29.9788C10.2547 19.2365 11.2576 13.5974 15.2141 11.2761C19.1706 8.95472 24.5824 10.8302 30.8852 21.5724C37.1879 32.3147 38.0383 50.1773 38.0383 50.1773C38.0383 50.1773 22.8602 40.7211 16.5574 29.9788Z" fill="#264625"/>
<g style="mix-blend-mode:multiply">
<mask id="mask1_2_2114" style="mask-type:alpha" maskUnits="userSpaceOnUse" x="7" y="10" width="32" height="46">
<rect width="8.63812" height="46.7427" transform="matrix(0.862504 -0.50605 -0.50605 -0.862504 31.2896 55.0878)" fill="#D9D9D9"/>
</mask>
<g mask="url(#mask1_2_2114)">
<path d="M16.5577 29.9788C10.255 19.2365 11.2579 13.5974 15.2143 11.2761C19.1708 8.95472 24.5827 10.8302 30.8854 21.5724C37.1881 32.3147 38.8982 49.673 38.0385 50.1773C37.4654 50.5135 22.8604 40.7211 16.5577 29.9788Z" fill="#A6A06C" fill-opacity="0.3"/>
</g>
</g>
<line x1="1.5" y1="-1.5" x2="8.97031" y2="-1.5" transform="matrix(-0.873872 -0.486156 0.303854 -0.952719 34.1951 32.466)" stroke="#266125" stroke-width="3" stroke-linecap="round"/>
<line x1="1.5" y1="-1.5" x2="8.97031" y2="-1.5" transform="matrix(-0.873872 -0.486156 0.303854 -0.952719 27.5552 21.1492)" stroke="#266125" stroke-width="3" stroke-linecap="round"/>
<line x1="1.5" y1="-1.5" x2="8.97031" y2="-1.5" transform="matrix(0.00191333 -0.999998 -0.979895 -0.199516 20.9741 33.5675)" stroke="#112C11" stroke-width="3" stroke-linecap="round"/>
<line x1="33.1103" y1="42.7726" x2="11.3892" y2="5.75162" stroke="#112C11" stroke-width="3" stroke-linecap="round"/>
<path fill-rule="evenodd" clip-rule="evenodd" d="M54.7476 78.8295C61.2466 81.1581 68.3068 78.0449 73.4297 63.7471C75.709 57.3858 75.9342 49.4212 75.482 42.5393C75.2225 42.5539 74.956 42.5178 74.696 42.4247C73.6561 42.0521 73.1152 40.9071 73.4878 39.8673C73.7528 39.1275 74.4087 38.6403 75.1396 38.5548C74.4396 31.915 73.2991 27.0527 73.2991 27.0527C73.2991 27.0527 58.2968 38.512 51.6646 51.2979C51.8933 51.2962 52.1262 51.334 52.354 51.4156C53.3939 51.7882 53.9348 52.9332 53.5622 53.973C53.407 54.4063 53.1176 54.753 52.7576 54.983C53.3018 56.0498 53.4216 57.3302 52.9858 58.5466C52.2506 60.5983 50.179 61.7868 48.1024 61.4829C45.9317 71.653 49.2637 76.8646 54.7476 78.8295Z" fill="#A6A06C"/>
<line x1="60.0751" y1="44.9732" x2="63.0532" y2="55.1478" stroke="#938154" stroke-width="3" stroke-linecap="round"/>
<line x1="54.6781" y1="60.0355" x2="57.6562" y2="70.2101" stroke="#938154" stroke-width="3" stroke-linecap="round"/>
<line x1="1.5" y1="-1.5" x2="12.1015" y2="-1.5" transform="matrix(-0.82649 0.562951 0.562951 0.82649 72.7981 56.6161)" stroke="#89784D" stroke-width="3" stroke-linecap="round"/>
<g style="mix-blend-mode:multiply">
<mask id="mask2_2_2114" style="mask-type:alpha" maskUnits="userSpaceOnUse" x="53" y="25" width="33" height="59">
<rect width="13" height="57" transform="matrix(-0.941397 -0.3373 -0.3373 0.941397 85.4041 30.3275)" fill="#D9D9D9"/>
</mask>
<g mask="url(#mask2_2_2114)">
<path d="M73.4298 63.7471C68.3069 78.0449 61.2467 81.1581 54.7477 78.8295C48.2487 76.5009 44.772 69.6124 49.8949 55.3146C55.0177 41.0168 71.8871 26.5467 73.2992 27.0527C74.2406 27.39 78.5527 49.4494 73.4298 63.7471Z" fill="#A6A06C" fill-opacity="0.3"/>
</g>
</g>
<line x1="69.7575" y1="36.9373" x2="51.8806" y2="86.8314" stroke="#89784D" stroke-width="3" stroke-linecap="round"/>
<path fill-rule="evenodd" clip-rule="evenodd" d="M33.3302 93.0847C26.9953 95.8285 19.7485 93.1783 13.7121 79.2416C11.0263 73.0409 10.2867 65.1075 10.2931 58.2108C10.5529 58.2086 10.8166 58.1554 11.07 58.0456C12.0836 57.6066 12.5494 56.429 12.1103 55.4154C11.798 54.6944 11.112 54.2506 10.3771 54.2125C10.6464 47.5413 11.4702 42.6154 11.4702 42.6154C11.4702 42.6154 27.1819 53.081 34.6268 65.4114C34.3985 65.4244 34.1685 65.4772 33.9465 65.5734C32.9329 66.0124 32.4671 67.1899 32.9061 68.2035C33.0891 68.6259 33.4002 68.9531 33.7744 69.1594C33.3002 70.2592 33.2635 71.5446 33.7771 72.7303C34.6433 74.7302 36.7874 75.7822 38.84 75.3447C41.6636 85.3533 38.6756 90.7694 33.3302 93.0847Z" fill="#938154"/>
<line x1="13.7857" y1="64.8584" x2="22.9152" y2="70.2475" stroke="#938154" stroke-width="3" stroke-linecap="round"/>
<line x1="20.1448" y1="79.5404" x2="29.2743" y2="84.9295" stroke="#938154" stroke-width="3" stroke-linecap="round"/>
<line x1="15.3579" y1="52.3742" x2="36.4229" y2="101.008" stroke="#89784D" stroke-width="3" stroke-linecap="round"/>
<path d="M60.4004 91.2803C60.4004 102.096 55.1397 105.879 48.6504 105.879C42.161 105.879 36.9004 102.096 36.9004 91.2803C36.9004 80.4647 48.6504 66.7121 48.6504 66.7121C48.6504 66.7121 60.4004 80.4647 60.4004 91.2803Z" fill="#264625"/>
<g style="mix-blend-mode:multiply">
<mask id="mask3_2_2114" style="mask-type:alpha" maskUnits="userSpaceOnUse" x="48" y="66" width="13" height="41">
<rect width="12.22" height="40.5909" transform="matrix(-1 0 0 1 60.4004 66)" fill="#D9D9D9"/>
</mask>
<g mask="url(#mask3_2_2114)">
<path d="M60.4004 91.2803C60.4004 102.096 55.1397 105.879 48.6504 105.879C42.161 105.879 36.9004 102.096 36.9004 91.2803C36.9004 80.4647 47.2404 66.7121 48.6504 66.7121C49.5904 66.7121 60.4004 80.4647 60.4004 91.2803Z" fill="#A6A06C" fill-opacity="0.3"/>
</g>
</g>
<line x1="1.5" y1="-1.5" x2="9.35871" y2="-1.5" transform="matrix(0.692532 0.721387 -0.875859 0.482567 40.6604 81.6667)" stroke="#266125" stroke-width="3" stroke-linecap="round"/>
<line x1="1.5" y1="-1.5" x2="9.35871" y2="-1.5" transform="matrix(0.692532 0.721387 -0.875859 0.482567 40.6604 93.0606)" stroke="#266125" stroke-width="3" stroke-linecap="round"/>
<line x1="1.5" y1="-1.5" x2="9.35871" y2="-1.5" transform="matrix(-0.692532 0.721387 0.875859 0.482567 57.5803 86.6516)" stroke="#112C11" stroke-width="3" stroke-linecap="round"/>
<line x1="48.7402" y1="74.6212" x2="48.7402" y2="111.5" stroke="#112C11" stroke-width="3" stroke-linecap="round"/>
<g filter="url(#filter0_d_2_2114)">
<path fill-rule="evenodd" clip-rule="evenodd" d="M22.692 117.213C17.4606 116.168 13.9206 111.813 15.9244 101.783C16.816 97.3205 19.6903 92.6936 22.6065 88.9319C22.7745 89.035 22.9665 89.1118 23.1758 89.1536C24.0128 89.3209 24.8095 88.8651 24.9552 88.1357C25.0589 87.6168 24.8052 87.0992 24.3488 86.7834C27.3389 83.2504 29.9485 80.8925 29.9485 80.8925C29.9485 80.8925 35.6307 92.9112 35.2107 102.629C35.0583 102.545 34.8882 102.481 34.7048 102.445C33.8678 102.278 33.0711 102.733 32.9254 103.463C32.8647 103.767 32.9266 104.07 33.0799 104.333C32.3107 104.743 31.7443 105.43 31.5738 106.283C31.2862 107.722 32.2206 109.157 33.725 109.742C31.3143 116.338 27.1063 118.095 22.692 117.213Z" fill="#938154"/>
<line x1="1.5" y1="-1.5" x2="8.14838" y2="-1.5" transform="matrix(0.477897 0.878416 -0.933156 0.359471 20.501 93.4263)" stroke="#938154" stroke-width="3" stroke-linecap="round"/>
<line x1="1.5" y1="-1.5" x2="8.14838" y2="-1.5" transform="matrix(0.477897 0.878416 -0.933156 0.359471 18.3899 103.992)" stroke="#938154" stroke-width="3" stroke-linecap="round"/>
<line x1="28.5657" y1="88.3264" x2="21.7651" y2="122.366" stroke="#89784D" stroke-width="3" stroke-linecap="round"/>
</g>
<defs>
<filter id="filter0_d_2_2114" x="11.356" y="80.8925" width="27.877" height="50.9733" filterUnits="userSpaceOnUse" color-interpolation-filters="sRGB">
<feFlood flood-opacity="0" result="BackgroundImageFix"/>
<feColorMatrix in="SourceAlpha" type="matrix" values="0 0 0 0 0 0 0 0 0 0 0 0 0 0 0 0 0 0 127 0" result="hardAlpha"/>
<feOffset dy="4"/>
<feGaussianBlur stdDeviation="2"/>
<feComposite in2="hardAlpha" operator="out"/>
<feColorMatrix type="matrix" values="0 0 0 0 0 0 0 0 0 0 0 0 0 0 0 0 0 0 0.25 0"/>
<feBlend mode="normal" in2="BackgroundImageFix" result="effect1_dropShadow_2_2114"/>
<feBlend mode="normal" in="SourceGraphic" in2="effect1_dropShadow_2_2114" result="shape"/>
</filter>
</defs>
</svg>
