<svg width="40" height="43" viewBox="0 0 40 43" fill="none" xmlns="http://www.w3.org/2000/svg">
<path d="M22.3707 13.2971C21.9665 11.6802 18.8111 12.324 17.505 12.324C14.0735 12.324 12.2761 12.9953 10.6931 16.4328C8.52178 21.1476 5.67722 30.8136 12.6393 30.8136C17.4902 30.8136 21.3976 30.4885 21.3976 24.9748C21.3976 21.7571 22.7404 17.7142 18.4782 18.1628C12.8651 18.7537 15.6391 31.9996 19.4513 26.7048C20.2846 25.5474 20.4244 22.0409 20.4244 25.191C20.4244 26.0005 19.8346 30.0862 20.8569 30.5973C23.4743 31.906 28.1887 28.8888 30.1558 27.4617C33.4367 25.0814 33.3481 21.0906 33.0752 17.4059C32.8797 14.7674 16.508 16.0579 14.8019 17.0816C11.9392 18.7992 9.58979 24.2944 9.71993 27.6779C9.86804 31.5288 17.5227 23.0722 18.0456 22.0554C18.713 20.7577 19.9678 17.6581 19.4513 16.1084C18.5479 13.3984 16.503 21.0096 15.2344 23.5691C14.7782 24.4894 9.96002 32.644 12.8556 32.7599C20.5767 33.0687 23.2174 30.659 27.0201 23.461C27.5358 22.4849 30.4037 19.2324 27.9933 19.136C25.1754 19.0232 23.4561 18.903 23.3438 22.2716C23.263 24.6966 23.2554 34.322 23.3438 26.2723C23.3989 21.2654 24.317 16.3497 24.317 11.3509C24.317 9.88544 21.1073 5.17133 19.6675 7.89083C17.6236 11.7516 27.9113 10.1501 28.9664 13.0809C29.7396 15.2287 29.953 20.0268 27.2364 20.1091C22.6375 20.2485 20.9502 19.919 19.235 15.4597C18.1956 12.7572 15.2162 11.3509 12.6393 11.3509C4.51135 11.3509 28.535 10.8402 10.1524 11.3509C5.90743 11.4688 4.85425 15.8514 4.85425 19.136C4.85425 23.4724 8.98151 22.284 12.6393 22.0554C13.8568 21.9793 12.2492 19.6609 11.6662 19.3522C10.6418 18.8099 8.90015 19.136 7.77366 19.136C2.22761 19.136 8.11882 22.0554 10.6931 22.0554C15.6766 22.0554 17.314 24.713 19.9919 28.6511C21.7272 31.203 27.9755 28.1674 28.9664 30.273C29.8882 32.2319 24.0618 37.5261 22.3707 37.6255C17.9412 37.8861 17.7108 35.6038 14.5856 33.9492C12.5243 32.858 20.3828 33.9873 22.5869 33.733C26.2361 33.3119 27.0583 23.3138 27.2364 20.1091C27.3129 18.7322 29.1483 19.0767 30.1558 19.136C31.7954 19.2324 31.1289 22.3256 31.1289 23.461C31.1289 26.4189 31.3477 32.7599 27.2364 32.7599" stroke="black" stroke-width="3" stroke-linecap="round"/>
<path d="M22.9632 16.5199C21.9315 15.4881 18.9225 11.3882 17.436 11.8218C16.9849 11.9534 16.6238 13.2165 16.5609 13.4032C15.4853 16.594 15.0517 20.0042 14.565 23.3214C14.4796 23.9031 12.8988 31.6042 13.9662 31.7196C14.9424 31.8251 16.4694 31.9144 17.3132 31.3358C18.7059 30.3808 19.296 27.7943 18.4186 26.3153C17.488 24.7464 15.7766 23.64 14.2733 22.7379C11.4946 21.0708 11.2355 24.7899 11.1105 26.8219C11.0711 27.4624 11.021 28.1871 11.0798 28.8332C11.0941 28.991 11.8588 27.3176 11.9089 27.2057C13.0427 24.6712 13.567 22.2935 13.567 19.5138C13.567 17.9736 13.3616 17.9017 11.9089 17.9017C11.1126 17.9017 10.1576 17.6406 9.80546 18.5312C8.47397 21.8991 8.59255 25.4226 8.59255 28.956" stroke="black" stroke-width="3" stroke-linecap="round"/>
<path d="M11.3562 20.3889C10.0619 21.8126 9.70217 23.9624 9.42164 25.7932C9.27084 26.7775 8.65133 29.1815 9.26811 30.1229C10.1388 31.4517 12.8788 30.8882 13.9969 30.5221C18.0107 29.2076 21.2687 24.748 21.5507 20.5885C21.7239 18.0337 21.8084 16.8036 18.8946 18.393C14.2215 20.942 8.63341 25.8411 6.94977 31.0901C6.50803 32.4673 8.06953 31.5862 8.62327 31.3204C10.952 30.2026 12.9758 28.6967 14.9181 27.0062C18.2432 24.1121 21.3327 21.1299 24.0072 17.6253C25.1732 16.0975 27.9295 17.4741 28.429 19.0071C29.157 21.2414 28.8261 24.0923 28.7668 26.4074C28.7274 27.9422 27.9662 30.8405 26.4331 31.6582C25.9379 31.9223 24.9129 31.7196 24.3604 31.7196C23.9332 31.7196 24.0686 31.543 23.8076 31.4125C23.6245 31.321 23.7923 31.8219 23.7923 32.0267C23.7923 32.6867 23.7965 33.2652 23.7769 33.9305C23.7499 34.8494 24.0431 37.2468 22.6869 37.2468C22.042 37.2468 21.3972 37.2468 20.7523 37.2468" stroke="black" stroke-width="3" stroke-linecap="round"/>
<path d="M8.03992 33.1014C9.1877 33.2289 10.1138 33.6541 11.3409 33.6541C12.7799 33.6541 13.6019 33.5138 14.9182 32.8557C15.8306 32.3995 16.5892 31.9116 17.3133 31.1669C17.8457 30.6192 18.4856 29.6805 18.0502 31.1054C17.8197 31.86 17.6895 32.5716 17.1598 33.1014" stroke="black" stroke-width="3" stroke-linecap="round"/>
<path d="M10.2507 20.9416C10.2507 18.9964 10.4998 17.0766 10.5271 15.1381C10.541 14.154 10.4589 13.4936 10.9416 12.6355C11.2592 12.0709 11.4396 10.9863 11.9396 10.5935C12.8709 9.86173 14.4448 9.43577 15.563 9.18099C19.4669 8.29147 23.075 8.63431 26.4945 10.6549C28.0975 11.6021 29.2952 11.869 29.7187 13.9866C29.8652 14.7191 30.9035 21.6937 29.5958 21.7707C26.8684 21.9311 27.1086 19.9236 27.1086 17.4871C27.1086 15.4979 26.1905 15.9744 25.4351 17.6406C24.081 20.6276 23.5159 23.4961 23.5159 26.7451" stroke="black" stroke-width="3" stroke-linecap="round"/>
<path d="M31.254 23.1525C31.254 26.3557 31.012 28.9039 28.7821 31.4125C27.8678 32.4411 26.3363 33.7034 26.0032 35.0359" stroke="black" stroke-width="3" stroke-linecap="round"/>
<path d="M28.7668 13.2036C28.7668 10.722 31.2329 7.4212 32.9122 5.74188" stroke="black" stroke-width="3" stroke-linecap="round"/>
<path d="M31.8066 25.087C33.8277 25.7088 35.9593 25.8264 37.8865 26.4688" stroke="black" stroke-width="3" stroke-linecap="round"/>
<path d="M27.385 33.3777C27.385 36.0982 28.2299 38.1232 29.0432 40.5631" stroke="black" stroke-width="3" stroke-linecap="round"/>
<path d="M1.95996 27.5742H10.8034" stroke="black" stroke-width="3" stroke-linecap="round"/>
<path d="M10.2507 33.6541C8.82387 35.2395 7.60963 37.5545 6.65808 39.4576" stroke="black" stroke-width="3" stroke-linecap="round"/>
<path d="M18.2652 10.1636C16.5168 7.2049 14.9628 4.5087 12.1853 2.4256" stroke="black" stroke-width="3" stroke-linecap="round"/>
<ellipse cx="15.5" cy="24.5" rx="3.5" ry="4.5" fill="#D9D9D9"/>
<ellipse cx="23.5" cy="24.5" rx="3.5" ry="4.5" fill="#D9D9D9"/>
<ellipse cx="16" cy="25.5" rx="2" ry="2.5" fill="black"/>
<ellipse cx="24" cy="25.5" rx="2" ry="2.5" fill="black"/>
<path d="M11.7849 13.7481C11.1588 14.4169 10.4234 15.3511 10.1939 16.2516C10.127 16.5141 10.151 16.7884 10.0792 17.0494C9.98277 17.4002 9.79178 17.6998 9.73994 18.0673C9.71413 18.2503 9.77898 18.5412 9.66658 18.7047C9.42521 19.0557 8.90289 19.5638 8.52946 19.7547C8.22017 19.9127 7.86521 20.0018 7.5299 20.0848C7.32516 20.1355 6.95811 20.1081 6.77793 20.2178C6.38462 20.4572 6.14341 21.1127 5.97095 21.497C5.53233 22.4743 5.18346 23.5143 4.98973 24.5691C4.8545 25.3053 4.85217 26.0438 4.85217 26.7883C4.85217 27.1188 5.12225 27.3184 5.34737 27.5311C5.54713 27.7197 5.82035 27.7326 6.05348 27.8658C6.20576 27.9528 6.49522 28.1442 6.66789 28.173C6.85633 28.2044 6.3068 26.4166 6.25981 26.261C5.96704 25.2912 5.97124 24.2428 6.02597 23.2394C6.08114 22.2278 6.34523 21.2828 6.72291 20.3461C7.07164 19.4813 7.68891 18.882 8.3002 18.2049C8.7885 17.664 9.18892 17.0336 9.7216 16.5542" stroke="black" stroke-width="3" stroke-linecap="round"/>
<path d="M11.2897 33.1433C10.8688 33.9852 11.973 35.1606 12.491 35.7018C12.7425 35.9646 13.104 36.6486 13.5181 36.6922C13.9705 36.7398 14.3646 36.8573 14.8386 36.8573C15.7513 36.8573 16.5488 36.7773 17.4384 36.6051C17.9875 36.4988 18.4765 36.1851 18.924 35.8669C19.5677 35.4092 20.1695 35.0753 20.7351 34.5097C20.8706 34.3742 21.2059 33.8587 21.4458 34.0237C21.7391 34.2253 21.9517 34.7877 22.019 35.1241" stroke="black" stroke-width="3" stroke-linecap="round"/>
<path d="M30.6849 28.0262C31.0268 29.233 31.2873 31.1519 30.4006 32.1804C30.0967 32.533 29.8507 32.663 29.3919 32.8131C28.6051 33.0705 27.8363 33.3775 27.0535 33.6385" stroke="black" stroke-width="3" stroke-linecap="round"/>
</svg>
