<svg width="72" height="92" viewBox="0 0 72 92" fill="none" xmlns="http://www.w3.org/2000/svg">
<path d="M34.5269 16.8669C34.6932 16.8163 34.8593 16.7654 35.0249 16.7143C35.645 13.5538 36.6172 10.4843 38.0111 7.54435C38.4779 6.55984 40.8588 4.16049 41.9404 6.20637C43.1331 8.4626 42.4416 11.8049 41.769 14.4369C41.6129 15.0479 41.4578 15.6207 41.3275 16.1327C41.0296 17.304 40.6824 18.4113 40.2866 19.4765C41.2025 18.9037 42.114 18.3303 43.0218 17.76C46.755 15.4146 50.4017 12.9215 54.1608 10.6181C54.5144 10.4014 55.4831 9.86268 55.3505 10.2565C54.1389 13.8538 51.8023 17.2233 50.2856 20.7071C50.0065 21.3482 49.5054 22.5293 49.0131 23.9079C50.9806 24.5016 55.2551 25.5729 55.6028 28.2287C55.6043 28.2404 55.6058 28.2521 55.6071 28.2637C57.8607 27.3008 60.1167 26.3444 62.3799 25.4081C62.5281 25.3468 66.687 24.0756 66.2371 24.269C65.3478 24.6514 64.6012 25.4213 63.8579 26.0229C61.9751 27.5467 59.3309 29.0169 59.46 31.7364C59.5068 32.722 62.3221 33.6089 63.0829 34.0507C64.8366 35.0692 66.3849 36.3565 68.0396 37.5222C68.5802 37.9031 71.2762 39.2218 69.2652 39.2218C68.997 39.2218 68.729 39.2205 68.4609 39.2181C69.0026 40.1686 69.4931 41.2743 69.103 41.6265C68.2689 42.3796 65.4189 41.7149 64.5428 41.4638C62.7871 40.9606 61.3043 39.846 59.5141 39.4207C58.8512 39.2632 54.5564 38.8964 56.5761 38.8964C60.5421 38.8964 64.4947 39.1819 68.4609 39.2181C68.0666 38.5261 67.6453 37.9163 67.5169 37.7392C65.5095 34.9704 61.6127 33.4807 58.3064 33.3817C57.8106 33.3669 57.3082 33.3473 56.8096 33.3395C57.0322 33.9402 57.1664 34.5564 57.1889 35.0994C57.2282 36.0454 54.2202 35.8316 53.6201 35.4249C53.0325 35.0266 52.5713 34.6949 52.128 34.4319C51.5157 34.9418 51.0372 35.6804 50.7543 36.7447C50.6723 37.0532 50.6007 37.3636 50.5388 37.6758C51.0489 36.7607 51.632 36.0206 51.9258 37.6307C52.4182 40.3282 52.4731 43.2448 52.3469 46.0868C54.3182 47.8156 56.1573 49.5904 56.664 50.0722C55.8022 48.7371 54.8929 47.4374 53.9626 46.1467C53.6736 45.7458 53.1335 45.412 53.1335 44.9172C53.1335 44.7531 55.4503 46.5904 55.4586 46.5988C56.576 47.7197 58.1774 49.1219 58.721 50.6669C59.0158 51.5048 56.8075 50.2076 56.7383 50.1426C56.7182 50.1236 56.6933 50.1001 56.664 50.0722C56.9029 50.4423 57.1382 50.8152 57.3692 51.1913C57.8657 51.9996 58.8045 53.1916 59.5261 54.3558C59.7533 53.3446 60.0653 52.489 60.3973 53.0717C60.601 53.4293 60.0441 54.079 59.8926 54.3012C59.8223 54.4042 59.751 54.5062 59.6788 54.6074C60.0653 55.2591 60.368 55.8927 60.4694 56.4347C60.5533 56.8837 60.0063 57.0161 59.1142 56.9532C58.8177 59.6413 58.8111 62.3588 58.8111 65.0592C58.8111 65.6567 59.1993 67.9824 57.982 66.9938C56.0319 65.4102 54.5978 62.6314 53.8184 60.2859C53.8035 60.2411 53.7888 60.1996 53.7743 60.1612C53.5225 60.3345 53.2685 60.5048 53.0128 60.6724C52.9748 60.7929 52.9371 60.9139 52.8991 61.0272C51.5506 65.0567 50.3618 69.1291 48.9518 73.1413C48.0807 75.6203 47.5795 79.082 46.1581 81.3138C45.8131 81.8553 44.6688 79.0354 44.644 78.9814C43.8052 77.1535 42.9254 75.3472 41.9404 73.5933L41.9401 73.5928C40.944 71.8192 39.7598 69.7106 39.6693 73.1051C39.5816 76.3964 39.6693 79.7027 39.6693 82.9953C39.6693 84.5693 40.4248 88.5886 39.5251 89.9925C39.3921 90.2001 38.1293 86.0077 38.0832 85.7436C37.5487 82.6797 37.7227 79.5277 37.7227 76.432C37.7227 73.2958 37.636 70.2021 38.2455 67.13C38.1069 67.1356 37.9686 67.1385 37.8308 67.1385C37.2539 67.1385 36.474 66.7523 36.0104 66.4514C35.206 65.9293 34.456 65.2127 33.7725 64.3722C32.2942 66.5298 30.6873 68.5893 28.9629 70.5738C28.8622 70.6897 25.74 74.3958 25.1597 73.2317C24.5918 72.0923 24.9746 69.9557 25.4817 68.0689C25.1667 68.4613 24.8481 68.8499 24.5289 69.2358C23.2519 70.7801 23.4898 68.5305 23.4655 67.5182C23.3913 64.4289 23.4474 61.3328 23.4474 58.2428C23.4474 58.0186 23.4112 56.2818 23.3413 55.0361C22.6622 55.5186 21.9889 56.0095 21.3206 56.507C20.8728 56.8403 19.6645 57.9759 19.9868 57.5195C20.8384 56.3135 22.0414 54.6969 23.1771 53.7587C23.2439 53.7036 23.2988 54.2792 23.3413 55.0361C24.0217 54.5525 24.708 54.0773 25.401 53.6121C25.3497 51.607 25.6799 49.6264 26.2188 47.6941C26.0288 46.9797 25.8476 46.2629 25.6726 45.5444C25.1329 45.4064 24.5003 45.4054 23.6637 45.4054C20.9939 45.4054 12.9912 45.08 15.6609 45.08H18.653H24.0963C24.6137 45.08 25.1089 45.1384 25.5942 45.2203C24.8902 42.2965 24.2841 39.3465 23.6097 36.4193C23.085 34.1422 22.5808 31.8117 21.835 29.5773C21.2219 29.836 20.6059 30.0859 19.9868 30.3261C18.4742 30.9129 18.2093 30.4225 18.3285 28.8977C18.3616 28.4753 18.9043 25.2637 19.9507 25.8421C20.4012 26.091 20.9551 27.2759 21.0682 27.5416C21.352 28.2081 21.605 28.8882 21.835 29.5773C24.3578 28.5128 26.8304 27.2985 29.2618 25.992C29.0052 25.0821 28.7431 24.1742 28.4582 23.2746C28.0565 22.006 27.0341 19.7258 27.5389 19.0796C27.329 19.0491 27.1189 19.0191 26.9089 18.9896C23.2517 19.9204 19.6245 20.7232 16.2738 21.358C14.9376 21.6112 5.25334 23.91 2.77357 21.5569C-0.67361 18.2859 8.44727 17.7419 9.64083 17.7419C15.3532 17.7419 21.1493 18.1802 26.9089 18.9896C28.8411 18.4978 30.7817 17.9703 32.6943 17.4129C32.4674 15.9119 32.3131 14.421 32.2073 13.0047C32.1987 12.8905 32.2073 15.1829 32.2073 15.6084C32.2073 18.2863 31.7876 17.2985 31.2339 15.2467C30.2818 11.7187 30.0275 8.09238 29.9542 4.45254C29.904 1.95761 30.4119 0.781021 31.7386 3.78355C33.1705 7.02401 33.6513 10.6404 33.799 14.2825C33.8106 13.0715 33.84 11.8615 33.9015 10.6542C34.0708 7.33364 34.4281 9.63244 34.4603 11.5402C34.4902 13.311 34.5185 15.0885 34.5269 16.8669Z" fill="#7B0000"/>
<path d="M56.2156 4.3983C54.4495 9.71332 47.4104 12.2696 42.8776 14.0173C34.8734 17.1034 24.6997 19.7616 16.2738 21.358C14.9376 21.6112 5.25334 23.91 2.77357 21.5569C-0.67361 18.2859 8.44727 17.7419 9.64083 17.7419C22.7896 17.7419 36.382 20.0641 48.9518 23.8893C50.8902 24.4792 55.2515 25.545 55.6028 28.2287C55.8775 30.3276 52.9967 31.7059 51.4392 32.2788C44.3245 34.8957 49.1484 23.3194 50.2856 20.7071C51.8023 17.2233 54.1389 13.8538 55.3505 10.2565C55.4831 9.86268 54.5144 10.4014 54.1608 10.6181C50.4017 12.9215 46.755 15.4146 43.0218 17.76C35.6832 22.3705 28.1004 27.1784 19.9868 30.3261C18.4742 30.9129 18.2093 30.4225 18.3285 28.8977C18.3616 28.4753 18.9043 25.2637 19.9507 25.8421C20.4012 26.091 20.9551 27.2759 21.0682 27.5416C22.2718 30.3689 22.9232 33.4399 23.6097 36.4193C24.6313 40.8534 25.4962 45.3399 26.7819 49.7086C28.1546 54.3726 30.0314 47.8757 30.5851 46.2371C33.0745 38.8702 34.8591 31.3105 37.5424 23.9978C37.8354 23.1995 38.1178 22.3966 38.4437 21.6112C38.5511 21.3523 38.569 20.9379 38.8402 20.8699C39.0445 20.8186 38.8939 21.2921 38.8762 21.5027C38.8089 22.3081 38.316 25.5582 38.2274 26.0952C37.4007 31.1022 36.3147 36.0764 35.2173 41.0299C35.1442 41.3598 34.8662 42.307 34.8388 41.9701C34.6117 39.1789 34.8856 36.2099 35.0911 33.436C35.4552 28.5217 36.2484 23.6477 36.4069 18.7182C36.4158 18.4411 36.4249 17.6092 36.4249 17.8865C36.4249 19.1522 36.4249 20.4178 36.4249 21.6835C36.4249 25.8963 36.4249 30.1091 36.4249 34.3219C36.4249 34.7373 36.3309 37.9386 36.8215 35.6057C37.6331 31.7461 38.1545 27.7826 38.6419 23.8713C38.7642 22.8899 38.7705 21.8896 38.9844 20.9241C39.2964 19.5155 38.8004 23.8129 38.5158 25.2273C37.3773 30.8837 35.2943 36.3715 33.3067 41.7712C32.9654 42.6984 33.0025 44.0002 32.1532 44.5014C32.0258 44.5765 31.9714 44.2509 31.9549 44.1036C31.8857 43.4836 31.8826 39.2812 31.8828 39.258C31.9308 33.1613 32.6073 27.2407 33.4329 21.2134C33.8276 18.3318 34.0374 17.3817 32.8201 20.4902C31.7402 23.2476 30.6604 26.0089 29.5036 28.735C29.0972 29.6928 28.0438 31.6061 30.0263 30.4526C32.2233 29.1744 33.916 27.0989 35.8842 25.5166C38.0023 23.8139 38.5597 24.1923 38.1192 26.8727C37.6331 29.831 36.477 32.4731 35.5237 35.2802C35.3382 35.8264 35.34 35.9956 35.9563 35.6057C38.18 34.199 40.1844 32.3531 42.3009 30.7962C44.8119 28.949 48.1361 25.9772 51.2049 25.0465C51.4352 24.9767 51.3274 25.5445 51.2409 25.7697C50.4794 27.7523 49.1755 29.5339 47.8884 31.194C46.0265 33.5953 43.8354 35.7385 42.1567 38.2816C42.0398 38.4587 41.5422 39.6062 41.1473 39.493C39.4592 39.0092 45.1835 30.9787 45.7615 30.2176C46.7861 28.8686 46.9684 29.6932 46.6627 31.0132C46.143 33.2574 44.3092 35.342 42.7154 36.9075C41.6496 37.9544 41.0286 37.9311 41.5078 36.3289C42.3939 33.366 45.3308 32.4936 47.9965 31.6279C49.8699 31.0195 53.2325 29.5715 55.1342 30.9227C56.3068 31.756 57.1299 33.6786 57.1889 35.0994C57.2282 36.0454 54.2202 35.8316 53.6201 35.4249C51.97 34.3064 51.3166 33.7137 49.2582 33.6891C47.7901 33.6716 46.4035 33.3636 44.9324 33.3636C43.1613 33.3636 46.7675 38.3066 47.7082 38.824C49.5976 39.8634 46.2071 35.0746 46.0499 34.8101C45.8921 34.5445 44.4397 31.6452 44.662 33.6529C44.9928 36.6395 46.3989 39.5592 47.3837 42.3679C48.4228 45.3315 43.8404 38.9454 43.5265 38.5528C42.7076 37.5285 41.3182 34.7806 39.8496 34.4123C36.912 33.6756 39.3447 38.0498 39.8496 39.0772C40.9508 41.318 42.1444 43.3367 43.7428 45.2608C43.7681 45.2912 46.4087 48.2825 45.0225 47.0146C42.4928 44.7009 40.4583 40.5236 36.6412 40.5236C35.1441 40.5236 37.539 42.9329 37.7587 43.2357C39.4624 45.5839 41.1117 47.9196 42.1927 50.6308C43.5631 54.0674 38.7274 48.7841 38.0291 48.2079C36.7858 47.182 34.1726 44.7545 32.4055 44.7545C29.8803 44.7545 35.3286 53.043 35.74 53.7406C36.9148 55.7327 38.1017 58.159 39.6693 59.9062C40.6471 60.996 38.1137 57.4231 37.3081 56.1996C35.3941 53.293 31.8117 47.1413 27.8093 46.7072C26.9821 46.6175 28.7604 48.1604 28.8547 48.2803C30.7863 50.7345 32.4363 53.4228 34.0818 56.0731C34.8306 57.2791 35.6439 58.6101 36.3168 59.87C36.4097 60.0439 37.1903 62.2343 37.5244 62.3832C37.9433 62.57 37.7267 61.4843 37.7768 61.0272C38.0974 58.1006 38.4804 55.1832 38.9483 52.2761C39.6631 47.8353 40.7018 43.6423 42.3369 39.4569C43.3088 36.9692 43.2571 38.2333 43.2381 40.1982C43.1857 45.6132 41.252 61.7653 41.6159 56.3624C41.8673 52.6311 44.0499 49.7243 45.6894 46.5264C46.7469 44.4637 46.4825 49.9255 46.4825 50.5042C46.4825 51.9596 46.8931 47.1763 46.9151 47.0689C47.5802 43.8237 48.9021 40.6762 50.4839 37.7753C51.0064 36.8171 51.6214 35.9626 51.9258 37.6307C52.641 41.5486 52.4333 45.9289 52.0881 49.8714C51.9822 51.0802 51.8625 56.0443 50.7002 56.9771C50.5209 57.121 50.6528 56.519 50.6281 56.29C50.481 54.9291 50.3308 53.5694 50.2315 52.2038C50.0477 49.6742 50.0513 47.1443 50.0513 44.6099C50.0513 43.3982 50.0513 43.9453 50.0513 44.2483C50.0513 46.0624 50.0513 47.8765 50.0513 49.6906C50.0513 52.2042 50.7147 59.6098 49.9071 57.2302C48.5597 53.2597 49.4024 47.8162 49.4024 43.7058C49.4024 40.8491 49.4024 37.9923 49.4024 35.1356C49.4024 34.3321 49.5238 36.7379 49.5647 37.5403C49.6661 39.5347 49.529 60.4219 45.9958 58.8213C44.0007 57.9175 42.8301 52.5822 42.2288 50.7935C41.1039 47.4477 40.5054 43.994 40.3542 40.4694C40.2884 38.9335 39.9387 34.4141 40.4624 35.8588C41.617 39.044 42.1682 42.5971 43.0218 45.8755C43.3613 47.1794 44.2492 51.1015 43.7428 49.8533C42.7131 47.3153 41.9026 44.6824 40.949 42.1147C40.1231 39.8908 38.793 37.3927 38.4437 35.0271C38.3999 34.7309 38.8375 35.4775 39.0204 35.7141C40.037 37.0291 41.0927 38.3102 42.1386 39.6015C44.5294 42.5532 46.7309 45.6112 48.7896 48.8046C49.2967 49.5911 50.7395 51.9344 50.5019 51.0285C50.1788 49.7968 49.2839 48.8518 48.6815 47.7559C48.1182 46.7313 46.2263 43.8454 46.6087 42.5667C47.1327 40.8144 55.9082 49.3619 56.7383 50.1426C56.8075 50.2076 59.0158 51.5048 58.721 50.6669C58.1774 49.1219 56.576 47.7197 55.4586 46.5988C55.4503 46.5904 53.1335 44.7531 53.1335 44.9172C53.1335 45.412 53.6736 45.7458 53.9626 46.1467C55.1508 47.7952 56.3048 49.4584 57.3692 51.1913C58.1809 52.5128 60.175 54.8601 60.4694 56.4347C60.8159 58.2885 50.4071 54.7458 49.3664 54.3373C46.9043 53.3709 47.1314 54.2446 47.1314 56.5793C47.1314 59.0939 47.0919 61.6103 47.2936 64.119C47.3982 65.4196 47.6337 66.143 46.5185 64.8965C44.9474 63.1403 43.4919 61.2764 41.7962 59.635C41.4677 59.317 39.4653 57.1046 38.8041 57.3387C37.4018 57.8352 36.2852 60.4186 35.5958 61.5515C33.6458 64.7563 31.424 67.7415 28.9629 70.5738C28.8622 70.6897 25.74 74.3958 25.1597 73.2317C24.2212 71.3488 25.879 66.7429 26.4034 65.0411C27.7796 60.5758 30.1963 56.7879 32.5317 52.8005C32.8449 52.2657 33.047 50.9445 33.5771 51.2636C34.1869 51.6306 33.7697 55.5789 33.7573 55.9284C33.7052 57.4053 34.0138 61.63 32.7119 62.8172C32.3697 63.1293 31.9117 60.177 31.8828 60.0147C31.7497 59.2656 31.6481 58.2611 31.2339 57.5918C31.0653 57.3193 29.7519 61.3291 29.6478 61.5696C28.4195 64.4065 26.4849 66.8705 24.5289 69.2358C23.2519 70.7801 23.4898 68.5305 23.4655 67.5182C23.3913 64.4289 23.4474 61.3328 23.4474 58.2428C23.4474 57.8823 23.3537 53.6128 23.1771 53.7587C22.0414 54.697 20.8384 56.3135 19.9868 57.5195C19.6645 57.9759 20.8728 56.8403 21.3206 56.507C23.9877 54.5215 26.7341 52.6417 29.6118 50.9743C29.7142 50.915 37.7408 47.0389 37.5785 48.1175C37.2652 50.1998 32.2511 52.5542 30.6932 53.4333C29.5747 54.0644 25.6213 57.1238 25.4301 54.2469C25.1536 50.0864 26.5893 46.0198 28.2059 42.2594C28.8472 40.7674 29.8482 37.7438 31.3421 36.7447C31.9224 36.3566 34.8723 48.8021 35.0731 50.1787C35.2257 51.2245 35.1281 50.4164 35.0551 50.2149C34.6413 49.0735 33.6026 48.066 32.7119 47.2858C31.394 46.1314 30.4584 45.7753 28.8187 45.7309C27.2005 45.687 25.7638 45.08 24.0963 45.08C22.2819 45.08 20.4674 45.08 18.653 45.08C17.6556 45.08 16.6583 45.08 15.6609 45.08C12.9912 45.08 20.9939 45.4054 23.6637 45.4054C25.6526 45.4054 26.4884 45.411 27.6651 47.2497C29.2253 49.6876 29.2316 52.3383 29.6838 55.0605C30.3173 58.8734 32.7039 64.3053 36.0104 66.4514C36.474 66.7523 37.2539 67.1385 37.8308 67.1385C42.2227 67.1385 47.0561 64.2417 50.6822 62.112C54.1734 60.0615 57.5809 57.6903 59.8926 54.3011C60.0441 54.079 60.601 53.4293 60.3973 53.0717C59.8481 52.1076 59.3532 55.0809 59.2077 56.1815C58.819 59.1205 58.8111 62.1001 58.8111 65.0592C58.8111 65.6567 59.1994 67.9824 57.982 66.9938C56.0319 65.4102 54.5978 62.6314 53.8184 60.2859C53.4174 59.0792 53.1628 60.2392 52.8991 61.0272C51.5506 65.0567 50.3618 69.1291 48.9518 73.1413C48.0807 75.6203 47.5795 79.082 46.1581 81.3138C45.8131 81.8553 44.6688 79.0354 44.644 78.9814C43.8052 77.1535 42.9254 75.3472 41.9404 73.5933C40.9442 71.8196 39.7598 69.7103 39.6693 73.1051C39.5816 76.3964 39.6693 79.7027 39.6693 82.9953C39.6693 84.5693 40.4248 88.5886 39.5251 89.9925C39.3921 90.2001 38.1293 86.0077 38.0832 85.7436C37.5487 82.6797 37.7227 79.5277 37.7227 76.432C37.7227 72.9662 37.6168 69.5523 38.4617 66.1621C39.248 63.0069 40.4047 59.958 41.2915 56.8325C41.4949 56.1157 41.5942 53.2837 42.6794 54.7351C44.0913 56.6236 44.9642 58.9392 45.8697 61.0995C46.5051 62.6156 46.0314 60.3652 45.9778 59.9966C45.7311 58.2998 45.189 56.7934 44.6801 55.169C44.5478 54.7468 43.7642 52.4777 44.3917 52.1315C45.5756 51.4782 47.7413 52.1258 48.8978 52.5654C50.1785 53.0523 51.3836 53.7159 52.4125 54.6266C53.3584 55.4638 52.4777 53.2033 52.4305 53.0355C51.0013 47.9494 49.3445 42.0478 50.7543 36.7447C51.7491 33.0024 55.1612 33.2875 58.3064 33.3817C61.6127 33.4807 65.5095 34.9704 67.5169 37.7392C67.8217 38.1597 69.7771 41.0179 69.103 41.6266C68.2689 42.3796 65.4189 41.7149 64.5428 41.4638C62.7871 40.9606 61.3043 39.846 59.5141 39.4207C58.8512 39.2632 54.5564 38.8964 56.5761 38.8964C60.8101 38.8964 65.0288 39.2218 69.2652 39.2218C71.2762 39.2218 68.5802 37.9031 68.0396 37.5222C66.3849 36.3565 64.8366 35.0692 63.0829 34.0507C62.3221 33.6089 59.5068 32.722 59.46 31.7364C59.3309 29.0169 61.9751 27.5467 63.8579 26.0229C64.6012 25.4213 65.3478 24.6514 66.2371 24.269C66.687 24.0756 62.5281 25.3468 62.3799 25.4081C56.4116 27.8772 50.4939 30.4862 44.5359 32.984C42.7122 33.7485 40.0772 34.8877 38.1913 35.6418C37.0986 36.0788 34.9463 37.2009 33.6131 37.1244C32.5599 37.0641 31.5401 33.2701 31.252 32.4958C30.1322 29.4869 29.4267 26.3331 28.4582 23.2746C27.8424 21.3299 25.7682 17.0081 29.9722 19.8393C32.1026 21.2739 33.8494 23.488 35.0371 25.7517C35.3821 26.4092 35.6851 27.2003 35.0911 25.9505C33.2687 22.1158 32.523 17.2279 32.2073 13.0047C32.1987 12.8905 32.2073 15.1829 32.2073 15.6084C32.2073 18.2863 31.7876 17.2985 31.2339 15.2467C30.2818 11.7187 30.0275 8.09238 29.9542 4.45254C29.904 1.95761 30.4119 0.781021 31.7386 3.78355C34.2687 9.5096 33.8294 16.4093 33.8294 22.5514C33.8294 24.2314 33.8294 23.3767 33.8294 21.9547C33.8294 18.1944 33.71 14.411 33.9015 10.6542C34.0708 7.33364 34.4281 9.63244 34.4603 11.5402C34.5309 15.7171 34.5922 19.9319 34.4062 24.1063C34.2214 28.2552 34.3581 21.4037 34.4062 20.9241C34.873 16.2724 36.0056 11.7743 38.0111 7.54435C38.4779 6.55984 40.8588 4.16049 41.9404 6.20637C43.41 8.98642 42.0189 13.4153 41.3275 16.1327C40.2362 20.4224 38.4856 23.8536 36.1005 27.5055" stroke="#A00000" stroke-width="3" stroke-linecap="round"/>
</svg>
