<svg width="207" height="225" viewBox="0 0 207 225" fill="none" xmlns="http://www.w3.org/2000/svg">
<g filter="url(#filter0_d_2_1137)">
<path d="M127.31 20.9806L151.474 62.7141L127.538 203.56L103.426 203.59L79.3134 203.62L55.0251 62.8347L79.0852 21.0409L127.31 20.9806Z" fill="url(#paint0_linear_2_1137)"/>
<path d="M120.294 35.7798L137.173 64.9305L118.078 188.197L103.643 188.215L89.0779 188.233L69.8039 65.0147L86.6098 35.8219L120.294 35.7798Z" fill="url(#paint1_linear_2_1137)"/>
<path d="M78.8691 21.2457L86.8872 35.7357L69.9241 65.2569L54.921 62.7757L78.8691 21.2457Z" fill="#959595"/>
<path d="M127.369 21.1851L119.387 35.6951L136.924 65.1732L151.421 62.6551L127.369 21.1851Z" fill="#424242"/>
<path d="M127.597 203.685L118.078 188.197L89.078 188.233L79.0973 203.746L127.597 203.685Z" fill="#212121"/>
<path d="M151.421 62.6551L136.924 65.1732L118.078 188.197L127.597 203.685L151.421 62.6551Z" fill="#2F2F2F"/>
<g filter="url(#filter1_i_2_1137)">
<rect x="102.417" y="59.2164" width="3" height="34" rx="1.5" transform="rotate(-0.0716041 102.417 59.2164)" fill="white"/>
</g>
<g filter="url(#filter2_i_2_1137)">
<rect x="114.427" y="67.2014" width="3" height="21" rx="1.5" transform="rotate(89.9284 114.427 67.2014)" fill="white"/>
</g>
</g>
<defs>
<filter id="filter0_d_2_1137" x="46.9209" y="16.9806" width="104.553" height="190.765" filterUnits="userSpaceOnUse" color-interpolation-filters="sRGB">
<feFlood flood-opacity="0" result="BackgroundImageFix"/>
<feColorMatrix in="SourceAlpha" type="matrix" values="0 0 0 0 0 0 0 0 0 0 0 0 0 0 0 0 0 0 127 0" result="hardAlpha"/>
<feOffset dx="-4"/>
<feGaussianBlur stdDeviation="2"/>
<feComposite in2="hardAlpha" operator="out"/>
<feColorMatrix type="matrix" values="0 0 0 0 0 0 0 0 0 0 0 0 0 0 0 0 0 0 0.25 0"/>
<feBlend mode="normal" in2="BackgroundImageFix" result="effect1_dropShadow_2_1137"/>
<feBlend mode="normal" in="SourceGraphic" in2="effect1_dropShadow_2_1137" result="shape"/>
</filter>
<filter id="filter1_i_2_1137" x="102.419" y="59.2145" width="4.03857" height="35" filterUnits="userSpaceOnUse" color-interpolation-filters="sRGB">
<feFlood flood-opacity="0" result="BackgroundImageFix"/>
<feBlend mode="normal" in="SourceGraphic" in2="BackgroundImageFix" result="shape"/>
<feColorMatrix in="SourceAlpha" type="matrix" values="0 0 0 0 0 0 0 0 0 0 0 0 0 0 0 0 0 0 127 0" result="hardAlpha"/>
<feOffset dx="1" dy="1"/>
<feGaussianBlur stdDeviation="1"/>
<feComposite in2="hardAlpha" operator="arithmetic" k2="-1" k3="1"/>
<feColorMatrix type="matrix" values="0 0 0 0 0 0 0 0 0 0 0 0 0 0 0 0 0 0 0.25 0"/>
<feBlend mode="normal" in2="shape" result="effect1_innerShadow_2_1137"/>
</filter>
<filter id="filter2_i_2_1137" x="93.4287" y="67.2032" width="22" height="4.02246" filterUnits="userSpaceOnUse" color-interpolation-filters="sRGB">
<feFlood flood-opacity="0" result="BackgroundImageFix"/>
<feBlend mode="normal" in="SourceGraphic" in2="BackgroundImageFix" result="shape"/>
<feColorMatrix in="SourceAlpha" type="matrix" values="0 0 0 0 0 0 0 0 0 0 0 0 0 0 0 0 0 0 127 0" result="hardAlpha"/>
<feOffset dx="1" dy="1"/>
<feGaussianBlur stdDeviation="1"/>
<feComposite in2="hardAlpha" operator="arithmetic" k2="-1" k3="1"/>
<feColorMatrix type="matrix" values="0 0 0 0 0 0 0 0 0 0 0 0 0 0 0 0 0 0 0.25 0"/>
<feBlend mode="normal" in2="shape" result="effect1_innerShadow_2_1137"/>
</filter>
<linearGradient id="paint0_linear_2_1137" x1="148.771" y1="33.3353" x2="57.8525" y2="191.265" gradientUnits="userSpaceOnUse">
<stop stop-color="#5A5A5A"/>
<stop offset="1" stop-color="#C6C6C6"/>
</linearGradient>
<linearGradient id="paint1_linear_2_1137" x1="115.628" y1="193.25" x2="86.881" y2="16.0954" gradientUnits="userSpaceOnUse">
<stop stop-color="#2D2D2D"/>
<stop offset="1" stop-color="#8D8D8D"/>
</linearGradient>
</defs>
</svg>
