<svg width="207" height="225" viewBox="0 0 207 225" fill="none" xmlns="http://www.w3.org/2000/svg">
<g filter="url(#filter0_d_2_783)">
<path d="M127.284 20.8818L151.396 62.6455L127.284 203.461L103.171 203.461L79.0591 203.461L54.9468 62.6455L79.0591 20.8818L127.284 20.8818Z" fill="url(#paint0_linear_2_783)"/>
<path d="M120.25 35.6723L137.092 64.844L117.843 188.086L103.407 188.086L88.8428 188.086L69.7229 64.844L86.5652 35.6723L120.25 35.6723Z" fill="url(#paint1_linear_2_783)"/>
<path d="M78.8428 21.0864L86.8428 35.5864L69.8428 65.0864L54.8428 62.5864L78.8428 21.0864Z" fill="#ECECEC"/>
<path d="M127.343 21.0864L119.343 35.5864L136.843 65.0864L151.343 62.5864L127.343 21.0864Z" fill="#CACACA"/>
<path d="M127.343 203.586L117.843 188.086L88.8429 188.086L78.8428 203.586L127.343 203.586Z" fill="#ACAAAA"/>
<path d="M151.343 62.5864L136.843 65.0864L117.843 188.086L127.343 203.586L151.343 62.5864Z" fill="#B6B6B6"/>
<g filter="url(#filter1_i_2_783)">
<rect x="102.343" y="59.0864" width="3" height="34" rx="1.5" fill="black"/>
</g>
<g filter="url(#filter2_i_2_783)">
<rect x="114.343" y="67.0864" width="3" height="21" rx="1.5" transform="rotate(90 114.343 67.0864)" fill="black"/>
</g>
</g>
<defs>
<filter id="filter0_d_2_783" x="46.8428" y="16.8818" width="104.553" height="190.705" filterUnits="userSpaceOnUse" color-interpolation-filters="sRGB">
<feFlood flood-opacity="0" result="BackgroundImageFix"/>
<feColorMatrix in="SourceAlpha" type="matrix" values="0 0 0 0 0 0 0 0 0 0 0 0 0 0 0 0 0 0 127 0" result="hardAlpha"/>
<feOffset dx="-4"/>
<feGaussianBlur stdDeviation="2"/>
<feComposite in2="hardAlpha" operator="out"/>
<feColorMatrix type="matrix" values="0 0 0 0 0 0 0 0 0 0 0 0 0 0 0 0 0 0 0.25 0"/>
<feBlend mode="normal" in2="BackgroundImageFix" result="effect1_dropShadow_2_783"/>
<feBlend mode="normal" in="SourceGraphic" in2="effect1_dropShadow_2_783" result="shape"/>
</filter>
<filter id="filter1_i_2_783" x="102.343" y="59.0864" width="4" height="35" filterUnits="userSpaceOnUse" color-interpolation-filters="sRGB">
<feFlood flood-opacity="0" result="BackgroundImageFix"/>
<feBlend mode="normal" in="SourceGraphic" in2="BackgroundImageFix" result="shape"/>
<feColorMatrix in="SourceAlpha" type="matrix" values="0 0 0 0 0 0 0 0 0 0 0 0 0 0 0 0 0 0 127 0" result="hardAlpha"/>
<feOffset dx="1" dy="1"/>
<feGaussianBlur stdDeviation="1"/>
<feComposite in2="hardAlpha" operator="arithmetic" k2="-1" k3="1"/>
<feColorMatrix type="matrix" values="0 0 0 0 0 0 0 0 0 0 0 0 0 0 0 0 0 0 0.25 0"/>
<feBlend mode="normal" in2="shape" result="effect1_innerShadow_2_783"/>
</filter>
<filter id="filter2_i_2_783" x="93.3428" y="67.0864" width="22" height="4" filterUnits="userSpaceOnUse" color-interpolation-filters="sRGB">
<feFlood flood-opacity="0" result="BackgroundImageFix"/>
<feBlend mode="normal" in="SourceGraphic" in2="BackgroundImageFix" result="shape"/>
<feColorMatrix in="SourceAlpha" type="matrix" values="0 0 0 0 0 0 0 0 0 0 0 0 0 0 0 0 0 0 127 0" result="hardAlpha"/>
<feOffset dx="1" dy="1"/>
<feGaussianBlur stdDeviation="1"/>
<feComposite in2="hardAlpha" operator="arithmetic" k2="-1" k3="1"/>
<feColorMatrix type="matrix" values="0 0 0 0 0 0 0 0 0 0 0 0 0 0 0 0 0 0 0.25 0"/>
<feBlend mode="normal" in2="shape" result="effect1_innerShadow_2_783"/>
</filter>
<linearGradient id="paint0_linear_2_783" x1="148.729" y1="33.2633" x2="57.6137" y2="191.08" gradientUnits="userSpaceOnUse">
<stop stop-color="#E1E1E1"/>
<stop offset="1" stop-color="#C6C6C6"/>
</linearGradient>
<linearGradient id="paint1_linear_2_783" x1="88.8428" y1="38.5864" x2="106.843" y2="162.586" gradientUnits="userSpaceOnUse">
<stop stop-color="white"/>
<stop offset="1" stop-color="#E2E2E2"/>
</linearGradient>
</defs>
</svg>
