<svg width="200" height="200" viewBox="0 0 200 200" fill="none" xmlns="http://www.w3.org/2000/svg">
<g filter="url(#filter0_d_13_30)">
<path d="M124.31 8.98061L148.474 50.7141L124.538 191.56L100.426 191.59L76.3134 191.62L52.0251 50.8347L76.0852 9.04087L124.31 8.98061Z" fill="url(#paint0_linear_13_30)"/>
<path d="M117.294 23.7798L134.173 52.9305L115.078 176.197L100.643 176.215L86.0779 176.233L66.8039 53.0147L83.6098 23.8219L117.294 23.7798Z" fill="url(#paint1_linear_13_30)"/>
<path d="M75.8691 9.2457L83.8872 23.7357L66.9241 53.2569L51.921 50.7757L75.8691 9.2457Z" fill="#959595"/>
<path d="M124.369 9.18508L116.387 23.6951L133.924 53.1732L148.421 50.6551L124.369 9.18508Z" fill="#424242"/>
<path d="M124.597 191.685L115.078 176.197L86.078 176.233L76.0973 191.746L124.597 191.685Z" fill="#212121"/>
<path d="M148.421 50.6551L133.924 53.1732L115.078 176.197L124.597 191.685L148.421 50.6551Z" fill="#2F2F2F"/>
<g filter="url(#filter1_i_13_30)">
<rect x="99.4167" y="47.2164" width="3" height="34" rx="1.5" transform="rotate(-0.0716041 99.4167 47.2164)" fill="white"/>
</g>
<g filter="url(#filter2_i_13_30)">
<rect x="111.427" y="55.2014" width="3" height="21" rx="1.5" transform="rotate(89.9284 111.427 55.2014)" fill="white"/>
</g>
</g>
<defs>
<filter id="filter0_d_13_30" x="43.9209" y="4.98059" width="104.553" height="190.765" filterUnits="userSpaceOnUse" color-interpolation-filters="sRGB">
<feFlood flood-opacity="0" result="BackgroundImageFix"/>
<feColorMatrix in="SourceAlpha" type="matrix" values="0 0 0 0 0 0 0 0 0 0 0 0 0 0 0 0 0 0 127 0" result="hardAlpha"/>
<feOffset dx="-4"/>
<feGaussianBlur stdDeviation="2"/>
<feComposite in2="hardAlpha" operator="out"/>
<feColorMatrix type="matrix" values="0 0 0 0 0 0 0 0 0 0 0 0 0 0 0 0 0 0 0.25 0"/>
<feBlend mode="normal" in2="BackgroundImageFix" result="effect1_dropShadow_13_30"/>
<feBlend mode="normal" in="SourceGraphic" in2="effect1_dropShadow_13_30" result="shape"/>
</filter>
<filter id="filter1_i_13_30" x="99.4187" y="47.2145" width="4.03857" height="35" filterUnits="userSpaceOnUse" color-interpolation-filters="sRGB">
<feFlood flood-opacity="0" result="BackgroundImageFix"/>
<feBlend mode="normal" in="SourceGraphic" in2="BackgroundImageFix" result="shape"/>
<feColorMatrix in="SourceAlpha" type="matrix" values="0 0 0 0 0 0 0 0 0 0 0 0 0 0 0 0 0 0 127 0" result="hardAlpha"/>
<feOffset dx="1" dy="1"/>
<feGaussianBlur stdDeviation="1"/>
<feComposite in2="hardAlpha" operator="arithmetic" k2="-1" k3="1"/>
<feColorMatrix type="matrix" values="0 0 0 0 0 0 0 0 0 0 0 0 0 0 0 0 0 0 0.25 0"/>
<feBlend mode="normal" in2="shape" result="effect1_innerShadow_13_30"/>
</filter>
<filter id="filter2_i_13_30" x="90.4287" y="55.2032" width="22" height="4.02246" filterUnits="userSpaceOnUse" color-interpolation-filters="sRGB">
<feFlood flood-opacity="0" result="BackgroundImageFix"/>
<feBlend mode="normal" in="SourceGraphic" in2="BackgroundImageFix" result="shape"/>
<feColorMatrix in="SourceAlpha" type="matrix" values="0 0 0 0 0 0 0 0 0 0 0 0 0 0 0 0 0 0 127 0" result="hardAlpha"/>
<feOffset dx="1" dy="1"/>
<feGaussianBlur stdDeviation="1"/>
<feComposite in2="hardAlpha" operator="arithmetic" k2="-1" k3="1"/>
<feColorMatrix type="matrix" values="0 0 0 0 0 0 0 0 0 0 0 0 0 0 0 0 0 0 0.25 0"/>
<feBlend mode="normal" in2="shape" result="effect1_innerShadow_13_30"/>
</filter>
<linearGradient id="paint0_linear_13_30" x1="145.771" y1="21.3353" x2="54.8525" y2="179.265" gradientUnits="userSpaceOnUse">
<stop stop-color="#5A5A5A"/>
<stop offset="1" stop-color="#C6C6C6"/>
</linearGradient>
<linearGradient id="paint1_linear_13_30" x1="112.628" y1="181.25" x2="83.881" y2="4.0954" gradientUnits="userSpaceOnUse">
<stop stop-color="#2D2D2D"/>
<stop offset="1" stop-color="#8D8D8D"/>
</linearGradient>
</defs>
</svg>
