<svg width="66" height="66" viewBox="0 0 66 66" fill="none" xmlns="http://www.w3.org/2000/svg">
<circle cx="25" cy="25" r="25" fill="#ACAAAA"/>
<circle cx="25" cy="25" r="22.5" stroke="#D6D6D6"/>
<circle cx="25" cy="25" r="18" fill="#D9D9D9"/>
<circle cx="25" cy="5" r="1" fill="#D9D9D9"/>
<circle cx="25" cy="45" r="1" fill="#D9D9D9"/>
<circle cx="45" cy="25" r="1" transform="rotate(90 45 25)" fill="#D9D9D9"/>
<circle cx="5" cy="25" r="1" transform="rotate(90 5 25)" fill="#D9D9D9"/>
<circle cx="39.3614" cy="38.9195" r="1" transform="rotate(134.105 39.3614 38.9195)" fill="#D9D9D9"/>
<circle cx="10.6387" cy="11.0804" r="1" transform="rotate(134.105 10.6387 11.0804)" fill="#D9D9D9"/>
<circle cx="39.2788" cy="10.9957" r="1" transform="rotate(45.556 39.2788 10.9957)" fill="#D9D9D9"/>
<circle cx="10.7211" cy="39.0042" r="1" transform="rotate(45.556 10.7211 39.0042)" fill="#D9D9D9"/>
<path d="M15.792 25.552C15.792 23.888 16.152 22.408 16.872 21.112C17.592 19.8 18.592 18.784 19.872 18.064C21.168 17.328 22.632 16.96 24.264 16.96C26.264 16.96 27.976 17.488 29.4 18.544C30.824 19.6 31.776 21.04 32.256 22.864H27.744C27.408 22.16 26.928 21.624 26.304 21.256C25.696 20.888 25 20.704 24.216 20.704C22.952 20.704 21.928 21.144 21.144 22.024C20.36 22.904 19.968 24.08 19.968 25.552C19.968 27.024 20.36 28.2 21.144 29.08C21.928 29.96 22.952 30.4 24.216 30.4C25 30.4 25.696 30.216 26.304 29.848C26.928 29.48 27.408 28.944 27.744 28.24H32.256C31.776 30.064 30.824 31.504 29.4 32.56C27.976 33.6 26.264 34.12 24.264 34.12C22.632 34.12 21.168 33.76 19.872 33.04C18.592 32.304 17.592 31.288 16.872 29.992C16.152 28.696 15.792 27.216 15.792 25.552Z" fill="#ACAAAA"/>
<g style="mix-blend-mode:multiply" opacity="0.3">
<mask id="mask0_41_18" style="mask-type:alpha" maskUnits="userSpaceOnUse" x="7" y="7" width="59" height="59">
<rect x="65.6899" y="30.3345" width="50" height="33" transform="rotate(135 65.6899 30.3345)" fill="#D9D9D9"/>
</mask>
<g mask="url(#mask0_41_18)">
<path d="M7.70723 43.0624C-2.05588 33.2993 -2.05588 17.4702 7.70723 7.7071C17.4703 -2.05601 33.2995 -2.05601 43.0626 7.7071C52.8257 17.4702 52.8257 33.2993 43.0626 43.0624C33.2995 52.8255 17.4703 52.8255 7.70723 43.0624Z" fill="#ACAAAA"/>
</g>
</g>
</svg>
