<svg width="63" height="168" viewBox="0 0 63 168" fill="none" xmlns="http://www.w3.org/2000/svg">
<rect x="26" y="19" width="2" height="11" rx="1" fill="#D9D9D9"/>
<rect x="32" y="19" width="2" height="11" rx="1" fill="#D9D9D9"/>
<rect x="29" y="19" width="2" height="11" rx="1" fill="#D9D9D9"/>
<rect x="35" y="19" width="2" height="11" rx="1" fill="#D9D9D9"/>
<rect x="20" y="148" width="2" height="10" rx="1" fill="#D9D9D9"/>
<rect width="2" height="10" rx="1" transform="matrix(-1 0 0 1 43 148)" fill="#D9D9D9"/>
<rect x="20" y="158" width="2" height="8" rx="1" fill="#D9D9D9"/>
<rect width="2" height="8" rx="1" transform="matrix(-1 0 0 1 43 158)" fill="#D9D9D9"/>
<rect x="23" y="148" width="2" height="10" rx="1" fill="#D9D9D9"/>
<rect width="2" height="10" rx="1" transform="matrix(-1 0 0 1 40 148)" fill="#D9D9D9"/>
<rect x="23" y="158" width="2" height="9" rx="1" fill="#D9D9D9"/>
<rect width="2" height="9" rx="1" transform="matrix(-1 0 0 1 40 158)" fill="#D9D9D9"/>
<rect x="26" y="148" width="2" height="10" rx="1" fill="#D9D9D9"/>
<rect width="2" height="10" rx="1" transform="matrix(-1 0 0 1 37 148)" fill="#D9D9D9"/>
<rect x="26" y="158" width="2" height="10" rx="1" fill="#D9D9D9"/>
<rect width="2" height="10" rx="1" transform="matrix(-1 0 0 1 37 158)" fill="#D9D9D9"/>
<ellipse cx="31.5" cy="12.5" rx="14.5" ry="12.5" fill="#D9D9D9"/>
<path d="M44.5 46.1137C44.5 47.0232 44.3757 47.3784 44.3106 47.4968C44.2471 47.5027 44.1173 47.5044 43.8915 47.4658C43.5274 47.4034 43.0582 47.2625 42.4477 47.0401C42.0397 46.8915 41.5827 46.7095 41.0829 46.5106C38.7371 45.5767 35.4487 44.2676 31.8625 44.2676C28.3485 44.2676 24.9881 45.5288 22.5165 46.4563C21.9416 46.672 21.4149 46.8697 20.9454 47.0293C20.2917 47.2515 19.7717 47.3972 19.3572 47.4626C18.9472 47.5273 18.7677 47.4918 18.7175 47.4755C18.7092 47.4638 18.6946 47.4406 18.6763 47.4003C18.5983 47.2282 18.5 46.8485 18.5 46.1137C18.5 40.4932 24.0564 35.5 31.5 35.5C38.9436 35.5 44.5 40.4932 44.5 46.1137ZM44.2718 47.5479C44.271 47.5464 44.2772 47.5374 44.2931 47.5254C44.2806 47.5433 44.2727 47.5493 44.2718 47.5479ZM18.7252 47.4852C18.7252 47.4852 18.7248 47.4848 18.7242 47.4841C18.7249 47.4848 18.7252 47.4851 18.7252 47.4852Z" stroke="#D9D9D9" stroke-width="3"/>
<path d="M44.5 53.9213C44.5 54.7323 44.4092 55.1859 44.3205 55.4171C44.3068 55.4528 44.2949 55.4792 44.2853 55.4983C44.226 55.5024 44.1084 55.5016 43.9079 55.465C43.5516 55.3999 43.0876 55.2517 42.4776 55.0146C42.0729 54.8574 41.6185 54.6644 41.1207 54.453C38.7762 53.457 35.4688 52.0521 31.8625 52.0521C28.3294 52.0521 24.9495 53.4055 22.4787 54.3949C21.9061 54.6241 21.3824 54.8338 20.9169 55.0026C20.2638 55.2394 19.749 55.3928 19.342 55.4614C18.9593 55.5258 18.7943 55.4931 18.751 55.4801C18.7482 55.4765 18.7447 55.4714 18.7404 55.4648C18.7287 55.4467 18.7111 55.4158 18.6906 55.3675C18.5999 55.1541 18.5 54.7197 18.5 53.9213C18.5 47.7714 24.1531 42.5 31.5 42.5C38.8469 42.5 44.5 47.7714 44.5 53.9213ZM44.259 55.5422C44.2589 55.542 44.2604 55.5399 44.2635 55.5366C44.2606 55.5408 44.259 55.5424 44.259 55.5422Z" stroke="#D9D9D9" stroke-width="3"/>
<path d="M44.5 60.9213C44.5 61.7323 44.4092 62.1859 44.3205 62.4171C44.3068 62.4528 44.2949 62.4792 44.2853 62.4983C44.226 62.5024 44.1084 62.5016 43.9079 62.465C43.5516 62.3999 43.0876 62.2517 42.4776 62.0146C42.0729 61.8574 41.6185 61.6644 41.1207 61.453C38.7762 60.457 35.4688 59.0521 31.8625 59.0521C28.3294 59.0521 24.9495 60.4055 22.4787 61.3949C21.9061 61.6241 21.3824 61.8338 20.9169 62.0026C20.2638 62.2394 19.749 62.3928 19.342 62.4614C18.9593 62.5258 18.7943 62.4931 18.751 62.4801C18.7482 62.4765 18.7447 62.4714 18.7404 62.4648C18.7287 62.4467 18.7111 62.4158 18.6906 62.3675C18.5999 62.1541 18.5 61.7197 18.5 60.9213C18.5 54.7714 24.1531 49.5 31.5 49.5C38.8469 49.5 44.5 54.7714 44.5 60.9213ZM44.259 62.5422C44.2589 62.542 44.2604 62.5399 44.2635 62.5366C44.2606 62.5408 44.259 62.5424 44.259 62.5422Z" stroke="#D9D9D9" stroke-width="3"/>
<path d="M42.3843 72.1985C41.5742 78.581 40.8974 82.0479 40.2604 83.7466C40.1781 83.9662 40.1045 84.133 40.0426 84.2585C39.7905 84.0256 39.4771 83.6798 39.0595 83.1982C38.996 83.1249 38.9306 83.0492 38.8634 82.9715C38.395 82.4291 37.8421 81.7887 37.2323 81.1827C35.851 79.8099 33.9128 78.3366 31.3283 78.3366C28.7671 78.3366 26.8576 79.7287 25.4955 81.0446C24.8907 81.6289 24.3474 82.245 23.8929 82.7604C23.8339 82.8273 23.7764 82.8925 23.7204 82.9557C23.3713 83.3503 23.1043 83.6409 22.8894 83.8468C22.8349 83.7285 22.7721 83.5783 22.703 83.3891C22.0942 81.7216 21.44 78.355 20.6299 72.1919C20.4993 71.1985 20.4769 70.5028 20.5198 70.027C20.5455 69.7421 20.5905 69.5844 20.6199 69.507C20.7709 69.4932 21.0486 69.5112 21.5224 69.6186C22.0022 69.7275 22.5649 69.8987 23.253 70.1153C23.3418 70.1433 23.4324 70.1719 23.5248 70.2011C24.129 70.392 24.8061 70.6058 25.5249 70.8071C27.1894 71.2733 29.1569 71.6964 31.3283 71.6964C33.4986 71.6964 35.485 71.2732 37.1758 70.808C37.8846 70.6129 38.5572 70.4058 39.1627 70.2194C39.2763 70.1844 39.3876 70.1502 39.4964 70.1168C40.202 69.9006 40.7867 69.7282 41.2883 69.6185C41.9814 69.4669 42.2598 69.4956 42.3476 69.5162C42.3776 69.5773 42.4368 69.7322 42.472 70.0537C42.5232 70.5205 42.5099 71.2088 42.3843 72.1985ZM40.3949 84.5331C40.3949 84.5332 40.3926 84.5322 40.3879 84.5297C40.3924 84.5317 40.3948 84.533 40.3949 84.5331ZM42.3815 69.5274C42.3813 69.5275 42.3787 69.5266 42.3742 69.5239C42.3795 69.5259 42.3817 69.5272 42.3815 69.5274Z" stroke="#D9D9D9" stroke-width="3"/>
<ellipse cx="26.5" cy="17" rx="3.5" ry="3" fill="black"/>
<ellipse cx="36.5" cy="17" rx="3.5" ry="3" fill="black"/>
<line x1="31.5" y1="32.5" x2="31.5" y2="66.5" stroke="#D9D9D9" stroke-width="3" stroke-linecap="round"/>
<circle cx="20.5951" cy="107.637" r="2.51994" fill="#D9D9D9"/>
<circle cx="16.2753" cy="75.9581" r="2.51994" fill="#D9D9D9"/>
<line x1="16.8783" y1="76.8895" x2="20.7163" y2="106.037" stroke="#D9D9D9" stroke-width="3" stroke-linecap="round"/>
<circle r="2.51994" transform="matrix(-1 0 0 1 42.3282 107.637)" fill="#D9D9D9"/>
<circle r="2.51994" transform="matrix(-1 0 0 1 46.648 75.9581)" fill="#D9D9D9"/>
<line x1="1.5" y1="-1.5" x2="30.8992" y2="-1.5" transform="matrix(-0.130547 0.991442 0.991442 0.130547 47.728 75.5981)" stroke="#D9D9D9" stroke-width="3" stroke-linecap="round"/>
<rect width="2.15995" height="10.0798" rx="1.07997" transform="matrix(-0.986314 -0.164877 -0.164877 0.986314 10.7622 84.8237)" fill="#D9D9D9"/>
<rect width="2.15995" height="7.19982" rx="1.07997" transform="matrix(-0.986314 -0.164877 -0.164877 0.986314 8.98169 95.4756)" fill="#D9D9D9"/>
<rect width="2.15995" height="10.0798" rx="1.07997" transform="matrix(-0.986314 -0.164877 -0.164877 0.986314 7.92163 84.3489)" fill="#D9D9D9"/>
<rect width="2.15995" height="8.63979" rx="1.07997" transform="matrix(-0.986314 -0.164877 -0.164877 0.986314 6.14111 95.0008)" fill="#D9D9D9"/>
<rect width="2.15995" height="10.0798" rx="1.07997" transform="matrix(-0.986314 -0.164877 -0.164877 0.986314 5.08105 83.8741)" fill="#D9D9D9"/>
<rect width="2.15995" height="6.63803" rx="1.07997" transform="matrix(-0.986314 -0.164877 -0.164877 0.986314 3.30054 94.5259)" fill="#D9D9D9"/>
<circle r="2.51994" transform="matrix(-1 0 0 1 12.8277 57.2386)" fill="#D9D9D9"/>
<circle r="2.51994" transform="matrix(-1 0 0 1 15.8411 36.3591)" fill="#D9D9D9"/>
<line x1="16.0396" y1="37.692" x2="13.4408" y2="56.3203" stroke="#D9D9D9" stroke-width="3" stroke-linecap="round"/>
<circle r="2.51994" transform="matrix(-1 0 0 1 7.78792 80.998)" fill="#D9D9D9"/>
<circle r="2.51994" transform="matrix(-1 0 0 1 10.8014 60.1185)" fill="#D9D9D9"/>
<line x1="10.9998" y1="61.4514" x2="8.40096" y2="80.0797" stroke="#D9D9D9" stroke-width="3" stroke-linecap="round"/>
<rect x="52.3135" y="84.8237" width="2.15995" height="10.0798" rx="1.07997" transform="rotate(-9.49007 52.3135 84.8237)" fill="#D9D9D9"/>
<rect x="54.094" y="95.4756" width="2.15995" height="7.19982" rx="1.07997" transform="rotate(-9.49007 54.094 95.4756)" fill="#D9D9D9"/>
<rect x="55.1541" y="84.3489" width="2.15995" height="10.0798" rx="1.07997" transform="rotate(-9.49007 55.1541 84.3489)" fill="#D9D9D9"/>
<rect x="56.9346" y="95.0009" width="2.15995" height="8.63979" rx="1.07997" transform="rotate(-9.49007 56.9346 95.0009)" fill="#D9D9D9"/>
<rect x="57.9946" y="83.8741" width="2.15995" height="10.0798" rx="1.07997" transform="rotate(-9.49007 57.9946 83.8741)" fill="#D9D9D9"/>
<rect x="59.7751" y="94.526" width="2.15995" height="6.63803" rx="1.07997" transform="rotate(-9.49007 59.7751 94.526)" fill="#D9D9D9"/>
<circle cx="50.248" cy="57.2386" r="2.51994" fill="#D9D9D9"/>
<circle cx="47.2345" cy="36.3591" r="2.51994" fill="#D9D9D9"/>
<line x1="1.5" y1="-1.5" x2="20.3086" y2="-1.5" transform="matrix(0.138172 0.990408 0.990408 -0.138172 48.3145 35.9991)" stroke="#D9D9D9" stroke-width="3" stroke-linecap="round"/>
<circle cx="55.2878" cy="80.998" r="2.51994" fill="#D9D9D9"/>
<circle cx="52.2743" cy="60.1185" r="2.51994" fill="#D9D9D9"/>
<line x1="1.5" y1="-1.5" x2="20.3086" y2="-1.5" transform="matrix(0.138172 0.990408 0.990408 -0.138172 53.3545 59.7585)" stroke="#D9D9D9" stroke-width="3" stroke-linecap="round"/>
<circle cx="23.4521" cy="143.72" r="2.51994" transform="rotate(2.67999 23.4521 143.72)" fill="#D9D9D9"/>
<circle cx="20.6181" cy="111.874" r="2.51994" transform="rotate(2.67999 20.6181 111.874)" fill="#D9D9D9"/>
<line x1="21.1769" y1="112.832" x2="23.6478" y2="142.127" stroke="#D9D9D9" stroke-width="3" stroke-linecap="round"/>
<circle r="2.51994" transform="matrix(-0.998906 0.0467576 0.0467576 0.998906 39.4713 143.72)" fill="#D9D9D9"/>
<circle r="2.51994" transform="matrix(-0.998906 0.0467576 0.0467576 0.998906 42.3052 111.874)" fill="#D9D9D9"/>
<line x1="1.5" y1="-1.5" x2="30.8992" y2="-1.5" transform="matrix(-0.0840463 0.996462 0.996462 0.0840463 43.3672 111.464)" stroke="#D9D9D9" stroke-width="3" stroke-linecap="round"/>
</svg>
