<svg width="80" height="168" viewBox="0 0 80 168" fill="none" xmlns="http://www.w3.org/2000/svg">
<rect x="43" y="19" width="2" height="11" rx="1" fill="#D9D9D9"/>
<rect x="49" y="19" width="2" height="11" rx="1" fill="#D9D9D9"/>
<rect x="46" y="19" width="2" height="11" rx="1" fill="#D9D9D9"/>
<rect x="52" y="19" width="2" height="11" rx="1" fill="#D9D9D9"/>
<rect x="36" y="148" width="2" height="10" rx="1" fill="#D9D9D9"/>
<rect width="2" height="10" rx="1" transform="matrix(-1 0 0 1 60 148)" fill="#D9D9D9"/>
<rect x="36" y="158" width="2" height="8" rx="1" fill="#D9D9D9"/>
<rect width="2" height="8" rx="1" transform="matrix(-1 0 0 1 60 158)" fill="#D9D9D9"/>
<rect x="39" y="148" width="2" height="10" rx="1" fill="#D9D9D9"/>
<rect width="2" height="10" rx="1" transform="matrix(-1 0 0 1 57 148)" fill="#D9D9D9"/>
<rect x="39" y="158" width="2" height="9" rx="1" fill="#D9D9D9"/>
<rect width="2" height="9" rx="1" transform="matrix(-1 0 0 1 57 158)" fill="#D9D9D9"/>
<rect x="42" y="148" width="2" height="10" rx="1" fill="#D9D9D9"/>
<rect width="2" height="10" rx="1" transform="matrix(-1 0 0 1 54 148)" fill="#D9D9D9"/>
<rect x="42" y="158" width="2" height="10" rx="1" fill="#D9D9D9"/>
<rect width="2" height="10" rx="1" transform="matrix(-1 0 0 1 54 158)" fill="#D9D9D9"/>
<ellipse cx="48.5" cy="12.5" rx="14.5" ry="12.5" fill="#D9D9D9"/>
<path d="M61.5 46.1137C61.5 47.0232 61.3757 47.3784 61.3106 47.4968C61.2471 47.5027 61.1173 47.5044 60.8915 47.4658C60.5274 47.4034 60.0582 47.2625 59.4477 47.0401C59.0397 46.8915 58.5827 46.7095 58.0829 46.5106C55.7371 45.5767 52.4487 44.2676 48.8625 44.2676C45.3485 44.2676 41.9881 45.5288 39.5165 46.4563C38.9416 46.672 38.4149 46.8697 37.9454 47.0293C37.2917 47.2515 36.7717 47.3972 36.3572 47.4626C35.9472 47.5273 35.7677 47.4918 35.7175 47.4755C35.7092 47.4638 35.6946 47.4406 35.6763 47.4003C35.5983 47.2282 35.5 46.8485 35.5 46.1137C35.5 40.4932 41.0564 35.5 48.5 35.5C55.9436 35.5 61.5 40.4932 61.5 46.1137ZM61.2718 47.5479C61.271 47.5464 61.2772 47.5374 61.2931 47.5254C61.2806 47.5433 61.2727 47.5493 61.2718 47.5479ZM35.7252 47.4852C35.7252 47.4852 35.7248 47.4848 35.7242 47.4841C35.7249 47.4848 35.7252 47.4851 35.7252 47.4852Z" stroke="#D9D9D9" stroke-width="3"/>
<path d="M61.5 53.9213C61.5 54.7323 61.4092 55.1859 61.3205 55.4171C61.3068 55.4528 61.2949 55.4792 61.2853 55.4983C61.226 55.5024 61.1084 55.5016 60.9079 55.465C60.5516 55.3999 60.0876 55.2517 59.4776 55.0146C59.0729 54.8574 58.6185 54.6644 58.1207 54.453C55.7762 53.457 52.4688 52.0521 48.8625 52.0521C45.3294 52.0521 41.9495 53.4055 39.4787 54.3949C38.9061 54.6241 38.3824 54.8338 37.9169 55.0026C37.2638 55.2394 36.749 55.3928 36.342 55.4614C35.9593 55.5258 35.7943 55.4931 35.751 55.4801C35.7482 55.4765 35.7447 55.4714 35.7404 55.4648C35.7287 55.4467 35.7111 55.4158 35.6906 55.3675C35.5999 55.1541 35.5 54.7197 35.5 53.9213C35.5 47.7714 41.1531 42.5 48.5 42.5C55.8469 42.5 61.5 47.7714 61.5 53.9213ZM61.259 55.5422C61.2589 55.542 61.2604 55.5399 61.2635 55.5366C61.2606 55.5408 61.259 55.5424 61.259 55.5422Z" stroke="#D9D9D9" stroke-width="3"/>
<path d="M61.5 60.9213C61.5 61.7323 61.4092 62.1859 61.3205 62.4171C61.3068 62.4528 61.2949 62.4792 61.2853 62.4983C61.226 62.5024 61.1084 62.5016 60.9079 62.465C60.5516 62.3999 60.0876 62.2517 59.4776 62.0146C59.0729 61.8574 58.6185 61.6644 58.1207 61.453C55.7762 60.457 52.4688 59.0521 48.8625 59.0521C45.3294 59.0521 41.9495 60.4055 39.4787 61.3949C38.9061 61.6241 38.3824 61.8338 37.9169 62.0026C37.2638 62.2394 36.749 62.3928 36.342 62.4614C35.9593 62.5258 35.7943 62.4931 35.751 62.4801C35.7482 62.4765 35.7447 62.4714 35.7404 62.4648C35.7287 62.4467 35.7111 62.4158 35.6906 62.3675C35.5999 62.1541 35.5 61.7197 35.5 60.9213C35.5 54.7714 41.1531 49.5 48.5 49.5C55.8469 49.5 61.5 54.7714 61.5 60.9213ZM61.259 62.5422C61.2589 62.542 61.2604 62.5399 61.2635 62.5366C61.2606 62.5408 61.259 62.5424 61.259 62.5422Z" stroke="#D9D9D9" stroke-width="3"/>
<path d="M58.3843 72.1985C57.5742 78.581 56.8974 82.0479 56.2604 83.7466C56.1781 83.9662 56.1045 84.133 56.0426 84.2585C55.7905 84.0256 55.4771 83.6798 55.0595 83.1982C54.996 83.1249 54.9306 83.0492 54.8634 82.9715C54.395 82.4291 53.8421 81.7887 53.2323 81.1827C51.851 79.8099 49.9128 78.3366 47.3283 78.3366C44.7671 78.3366 42.8576 79.7287 41.4955 81.0446C40.8907 81.6289 40.3474 82.245 39.8929 82.7604C39.8339 82.8273 39.7764 82.8925 39.7204 82.9557C39.3713 83.3503 39.1043 83.6409 38.8894 83.8468C38.8349 83.7285 38.7721 83.5783 38.703 83.3891C38.0942 81.7216 37.44 78.355 36.6299 72.1919C36.4993 71.1985 36.4769 70.5028 36.5198 70.027C36.5455 69.7421 36.5905 69.5844 36.6199 69.507C36.7709 69.4932 37.0486 69.5112 37.5224 69.6186C38.0022 69.7275 38.5649 69.8987 39.253 70.1153C39.3418 70.1433 39.4324 70.1719 39.5248 70.2011C40.129 70.392 40.8061 70.6058 41.5249 70.8071C43.1894 71.2733 45.1569 71.6964 47.3283 71.6964C49.4986 71.6964 51.485 71.2732 53.1758 70.808C53.8846 70.6129 54.5572 70.4058 55.1627 70.2194C55.2763 70.1844 55.3876 70.1502 55.4964 70.1168C56.202 69.9006 56.7867 69.7282 57.2883 69.6185C57.9814 69.4669 58.2598 69.4956 58.3476 69.5162C58.3776 69.5773 58.4368 69.7322 58.472 70.0537C58.5232 70.5205 58.5099 71.2088 58.3843 72.1985ZM56.3949 84.5331C56.3949 84.5332 56.3926 84.5322 56.3879 84.5297C56.3924 84.5317 56.3948 84.533 56.3949 84.5331ZM58.3815 69.5274C58.3813 69.5275 58.3787 69.5266 58.3742 69.5239C58.3795 69.5259 58.3817 69.5272 58.3815 69.5274Z" stroke="#D9D9D9" stroke-width="3"/>
<circle cx="43" cy="17" r="3" fill="black"/>
<circle cx="53" cy="17" r="3" fill="black"/>
<line x1="48.5" y1="32.5" x2="48.5" y2="66.5" stroke="#D9D9D9" stroke-width="3" stroke-linecap="round"/>
<circle cx="37.0373" cy="107.637" r="2.51994" fill="#D9D9D9"/>
<circle cx="32.7174" cy="75.9581" r="2.51994" fill="#D9D9D9"/>
<line x1="33.3204" y1="76.8895" x2="37.1584" y2="106.037" stroke="#D9D9D9" stroke-width="3" stroke-linecap="round"/>
<circle r="2.51994" transform="matrix(-1 0 0 1 58.7703 107.637)" fill="#D9D9D9"/>
<circle r="2.51994" transform="matrix(-1 0 0 1 63.0902 75.9581)" fill="#D9D9D9"/>
<line x1="1.5" y1="-1.5" x2="30.8992" y2="-1.5" transform="matrix(-0.130547 0.991442 0.991442 0.130547 64.1702 75.5981)" stroke="#D9D9D9" stroke-width="3" stroke-linecap="round"/>
<rect width="2.15995" height="10.0798" rx="1.07997" transform="matrix(0.970318 -0.241833 -0.241833 -0.970318 5.25 40.1279)" fill="#D9D9D9"/>
<rect width="2.15995" height="7.19982" rx="1.07997" transform="matrix(0.970318 -0.241833 -0.241833 -0.970318 2.63818 29.6488)" fill="#D9D9D9"/>
<rect width="2.15995" height="10.0798" rx="1.07997" transform="matrix(0.970318 -0.241833 -0.241833 -0.970318 8.04443 39.4315)" fill="#D9D9D9"/>
<rect width="2.15995" height="8.63979" rx="1.07997" transform="matrix(0.970318 -0.241833 -0.241833 -0.970318 5.43262 28.9523)" fill="#D9D9D9"/>
<rect width="2.15995" height="10.0798" rx="1.07997" transform="matrix(0.970318 -0.241833 -0.241833 -0.970318 10.8389 38.735)" fill="#D9D9D9"/>
<rect width="2.15995" height="6.63803" rx="1.07997" transform="matrix(0.970318 -0.241833 -0.241833 -0.970318 8.22705 28.2559)" fill="#D9D9D9"/>
<circle r="2.51994" transform="matrix(-1 0 0 1 29.2699 57.2386)" fill="#D9D9D9"/>
<circle r="2.51994" transform="matrix(-1 0 0 1 32.2833 36.3591)" fill="#D9D9D9"/>
<line x1="32.4817" y1="37.692" x2="29.8829" y2="56.3203" stroke="#D9D9D9" stroke-width="3" stroke-linecap="round"/>
<circle r="2.51994" transform="matrix(0.5 -0.866025 -0.866025 -0.5 9.94727 43.0413)" fill="#D9D9D9"/>
<circle r="2.51994" transform="matrix(0.5 -0.866025 -0.866025 -0.5 26.5225 56.0907)" fill="#D9D9D9"/>
<line x1="25.2693" y1="55.596" x2="10.4362" y2="44.0313" stroke="#D9D9D9" stroke-width="3" stroke-linecap="round"/>
<rect x="68.7559" y="84.8237" width="2.15995" height="10.0798" rx="1.07997" transform="rotate(-9.49007 68.7559 84.8237)" fill="#D9D9D9"/>
<rect x="70.5364" y="95.4756" width="2.15995" height="7.19982" rx="1.07997" transform="rotate(-9.49007 70.5364 95.4756)" fill="#D9D9D9"/>
<rect x="71.5964" y="84.3489" width="2.15995" height="10.0798" rx="1.07997" transform="rotate(-9.49007 71.5964 84.3489)" fill="#D9D9D9"/>
<rect x="73.377" y="95.0009" width="2.15995" height="8.63979" rx="1.07997" transform="rotate(-9.49007 73.377 95.0009)" fill="#D9D9D9"/>
<rect x="74.437" y="83.8741" width="2.15995" height="10.0798" rx="1.07997" transform="rotate(-9.49007 74.437 83.8741)" fill="#D9D9D9"/>
<rect x="76.2175" y="94.526" width="2.15995" height="6.63803" rx="1.07997" transform="rotate(-9.49007 76.2175 94.526)" fill="#D9D9D9"/>
<circle cx="66.6903" cy="57.2386" r="2.51994" fill="#D9D9D9"/>
<circle cx="63.6769" cy="36.3591" r="2.51994" fill="#D9D9D9"/>
<line x1="1.5" y1="-1.5" x2="20.3086" y2="-1.5" transform="matrix(0.138172 0.990408 0.990408 -0.138172 64.7571 35.9991)" stroke="#D9D9D9" stroke-width="3" stroke-linecap="round"/>
<circle cx="71.7299" cy="80.998" r="2.51994" fill="#D9D9D9"/>
<circle cx="68.7167" cy="60.1185" r="2.51994" fill="#D9D9D9"/>
<line x1="1.5" y1="-1.5" x2="20.3086" y2="-1.5" transform="matrix(0.138172 0.990408 0.990408 -0.138172 69.7966 59.7585)" stroke="#D9D9D9" stroke-width="3" stroke-linecap="round"/>
<circle cx="39.8942" cy="143.72" r="2.51994" transform="rotate(2.67999 39.8942 143.72)" fill="#D9D9D9"/>
<circle cx="37.0605" cy="111.874" r="2.51994" transform="rotate(2.67999 37.0605 111.874)" fill="#D9D9D9"/>
<line x1="37.6191" y1="112.832" x2="40.0899" y2="142.127" stroke="#D9D9D9" stroke-width="3" stroke-linecap="round"/>
<circle r="2.51994" transform="matrix(-0.998906 0.0467576 0.0467576 0.998906 55.9134 143.72)" fill="#D9D9D9"/>
<circle r="2.51994" transform="matrix(-0.998906 0.0467576 0.0467576 0.998906 58.7471 111.874)" fill="#D9D9D9"/>
<line x1="1.5" y1="-1.5" x2="30.8992" y2="-1.5" transform="matrix(-0.0840463 0.996462 0.996462 0.0840463 59.8093 111.464)" stroke="#D9D9D9" stroke-width="3" stroke-linecap="round"/>
</svg>
