<svg width="469" height="423" viewBox="0 0 469 423" fill="none" xmlns="http://www.w3.org/2000/svg">
<path d="M56.6579 55.1579C41.7639 55.1579 27.4799 61.0745 16.9483 71.6061C6.41662 82.1378 0.500001 96.4218 0.5 111.316" stroke="white"/>
<path d="M78.9211 77.4211C58.1225 77.4211 38.1758 85.6832 23.469 100.39C8.7622 115.097 0.500002 135.044 0.5 155.842" stroke="white"/>
<path d="M101.184 99.6842C74.4811 99.6842 48.8717 110.292 29.9897 129.174C11.1078 148.056 0.500002 173.665 0.5 200.368" stroke="white"/>
<path d="M123.447 121.947C90.8397 121.947 59.5676 134.901 36.5105 157.958C13.4533 181.015 0.500003 212.287 0.5 244.895" stroke="white"/>
<path d="M145.711 144.211C107.204 144.211 70.2718 158.918 43.0382 185.105C15.8039 211.291 0.500003 246.813 0.5 283.855" stroke="white"/>
<path d="M112.316 -0.5C97.4217 -0.5 83.1378 5.41662 72.6061 15.9483C62.0745 26.4799 56.1578 40.7639 56.1578 55.6579" stroke="white"/>
<path d="M156.842 -0.5C136.044 -0.5 116.097 7.76219 101.39 22.469C86.6833 37.1758 78.4211 57.1225 78.4211 77.921" stroke="white"/>
<path d="M201.368 -0.5C174.665 -0.5 149.056 10.1078 130.174 28.9897C111.292 47.8717 100.684 73.4811 100.684 100.184" stroke="white"/>
<path d="M245.895 -0.5C213.287 -0.5 182.015 12.4533 158.958 35.5104C135.901 58.5675 122.947 89.8397 122.947 122.447" stroke="white"/>
<path d="M290.421 -0.5C251.909 -0.5 214.974 14.7989 187.742 42.0312C160.51 69.2634 145.211 106.198 145.211 144.71" stroke="white"/>
<path d="M1 0L134.579 133.579" stroke="white" stroke-linecap="square"/>
<path d="M1 0L156.842 66.7895" stroke="white" stroke-linecap="square"/>
<path d="M1 0L67.7895 155.842" stroke="white" stroke-linecap="square"/>
<path d="M254.391 3.69832C246.314 0.953342 237.477 1.52955 229.824 5.30018C222.172 9.07082 216.33 15.727 213.585 23.8045" stroke="white"/>
<path d="M262.309 19.767C251.051 15.9411 238.734 16.7442 228.068 21.9997C217.402 27.2551 209.26 36.5324 205.434 47.7906" stroke="white"/>
<path d="M270.226 35.8357C255.787 30.9289 239.99 31.9589 226.311 38.6992C212.631 45.4394 202.19 57.3378 197.283 71.7767" stroke="white"/>
<path d="M278.144 51.9044C260.524 45.9167 241.247 47.1736 224.554 55.3986C207.861 63.6237 195.119 78.1431 189.132 95.7629" stroke="white"/>
<path d="M286.061 67.9731C265.267 60.9064 242.621 62.0707 223.105 71.2157C203.588 80.3611 188.8 96.7393 181.999 116.751" stroke="white"/>
<path d="M294.563 -16.0953C286.486 -18.8403 277.649 -18.2641 269.996 -14.4934C262.343 -10.7228 256.502 -4.06661 253.757 4.01084" stroke="white"/>
<path d="M318.549 -7.94405C307.291 -11.7699 294.974 -10.9668 284.308 -5.71139C273.642 -0.455955 265.5 8.82132 261.675 20.0795" stroke="white"/>
<path d="M342.535 0.207203C328.096 -4.69962 312.3 -3.66961 298.62 3.07064C284.941 9.81089 274.499 21.7092 269.592 36.1482" stroke="white"/>
<path d="M366.522 8.35845C348.902 2.37071 329.625 3.62762 312.932 11.8527C296.239 20.0777 283.497 34.5972 277.509 52.2169" stroke="white"/>
<path d="M390.508 16.5097C369.707 9.44103 346.951 10.9248 327.244 20.6347C307.538 30.3446 292.496 47.4851 285.427 68.2856" stroke="white"/>
<path d="M234.437 -36L281.942 60.4122" stroke="white" stroke-linecap="square"/>
<path d="M234.437 -36L306.162 28.5086" stroke="white" stroke-linecap="square"/>
<path d="M234.437 -36L241.887 60.1784" stroke="white" stroke-linecap="square"/>
</svg>
