<svg width="236" height="156" viewBox="0 0 236 156" fill="none" xmlns="http://www.w3.org/2000/svg">
<path d="M108.211 155.5C155.279 155.5 193.519 120.846 193.519 78C193.519 35.1536 155.279 0.5 108.211 0.5C61.1427 0.5 22.9023 35.1536 22.9023 78C22.9023 120.846 61.1427 155.5 108.211 155.5Z" stroke="white"/>
<path d="M25.0024 108.444C31.8236 108.444 37.9606 104.748 42.3749 98.847C46.7892 92.9465 49.5047 84.8181 49.5047 75.8611C49.5047 66.9041 46.7892 58.7757 42.3749 52.8752C37.9606 46.9747 31.8236 43.2778 25.0024 43.2778C18.1811 43.2778 12.0442 46.9747 7.62977 52.8752C3.21547 58.7757 0.5 66.9041 0.5 75.8611C0.5 84.8181 3.21547 92.9465 7.62977 98.847C12.0442 104.748 18.1811 108.444 25.0024 108.444Z" stroke="white"/>
<path d="M57.0054 95.6111C61.1755 95.6111 64.9122 93.3506 67.5891 89.7724C70.266 86.1943 71.9068 81.2743 71.9068 75.8611C71.9068 70.4479 70.266 65.5279 67.5891 61.9498C64.9122 58.3715 61.1755 56.1111 57.0054 56.1111C52.8354 56.1111 49.0987 58.3715 46.4217 61.9498C43.7448 65.5279 42.104 70.4479 42.104 75.8611C42.104 81.2743 43.7448 86.1943 46.4217 89.7724C49.0987 93.3506 52.8354 95.6111 57.0054 95.6111Z" stroke="white"/>
<path d="M159.416 138.389C180.275 138.389 199.181 132.378 212.885 122.635C226.588 112.892 235.123 99.3871 235.123 84.4167C235.123 69.4463 226.588 55.9413 212.885 46.1986C199.181 36.4552 180.275 30.4445 159.416 30.4445C138.556 30.4445 119.65 36.4552 105.946 46.1986C92.2435 55.9413 83.7083 69.4463 83.7083 84.4167C83.7083 99.3871 92.2435 112.892 105.946 122.635C119.65 132.378 138.556 138.389 159.416 138.389Z" stroke="white"/>
<rect x="68.2068" y="78" width="3.20031" height="38.5" fill="white"/>
</svg>
